<?xml version="1.0" standalone="no"?>
<!DOCTYPE svg PUBLIC "-//W3C//DTD SVG 1.1//EN" "http://www.w3.org/Graphics/SVG/1.1/DTD/svg11.dtd" >
<svg xmlns="http://www.w3.org/2000/svg" xmlns:xlink="http://www.w3.org/1999/xlink" version="1.1">
<metadata>
Created by FontForge 20170731 at Mon Jun 18 12:10:41 2018
 By Aleksey,,,
copyright missing
</metadata>
<defs>
<font id="RadioGrotesk-Regular" horiz-adv-x="0" >
  <font-face 
    font-family="Radio Grotesk"
    font-weight="400"
    font-stretch="normal"
    units-per-em="1000"
    panose-1="0 0 5 0 0 0 0 0 0 0"
    ascent="800"
    descent="-200"
    x-height="500"
    cap-height="700"
    bbox="-387 -272.122 1051 925"
    underline-thickness="50"
    underline-position="-200"
    unicode-range="U+0020-25CA"
  />
<missing-glyph horiz-adv-x="500" 
d="M410 -200h-317v1000h317v-1000zM168 733v-33h65v-37h-66v-33h166v33h-66v37h66v33h-165zM167 604v-104h166v34h-66v70h-100zM233 534h-33v36h33v-36zM167 473v-33h66v-37h-66v-33h100v70h66v33h-166zM300 413v-66h-133v-34h166v100h-33zM233 291v-56h34v23h33v-47h-100
v80h-33v-113h166v113h-100zM167 118v-113h166v113h-166zM300 38h-100v47h100v-47zM167 -18v-33h70l-70 -47v-33h166v33h-102l70 47h32v33h-166z" />
    <glyph glyph-name=".notdef" horiz-adv-x="500" 
d="M410 -200h-317v1000h317v-1000zM168 733v-33h65v-37h-66v-33h166v33h-66v37h66v33h-165zM167 604v-104h166v34h-66v70h-100zM233 534h-33v36h33v-36zM167 473v-33h66v-37h-66v-33h100v70h66v33h-166zM300 413v-66h-133v-34h166v100h-33zM233 291v-56h34v23h33v-47h-100
v80h-33v-113h166v113h-100zM167 118v-113h166v113h-166zM300 38h-100v47h100v-47zM167 -18v-33h70l-70 -47v-33h166v33h-102l70 47h32v33h-166z" />
    <glyph glyph-name=".null" 
 />
    <glyph glyph-name="nonmarkingreturn" horiz-adv-x="333" 
 />
    <glyph glyph-name="space" unicode=" " horiz-adv-x="350" 
 />
    <glyph glyph-name="exclam" unicode="!" horiz-adv-x="147" 
d="M104 165l21 206v329h-103v-329l21 -206h61zM23 101h101v-109h-101v109z" />
    <glyph glyph-name="quotedbl" unicode="&#x22;" horiz-adv-x="280" 
d="M97 507l20 146v47h-97v-47l20 -146h57zM240 507l20 146v47h-97v-47l20 -146h57z" />
    <glyph glyph-name="numbersign" unicode="#" horiz-adv-x="694" 
d="M526 405l-30 -116h128l-28 -95h-125l-50 -194h-94l50 194h-138l-50 -194h-94l50 194h-130l28 95h127l30 116h-130l28 95h126l52 200h94l-52 -200h138l52 200h94l-52 -200h129l-28 -95h-125zM432 405h-138l-30 -116h138z" />
    <glyph glyph-name="dollar" unicode="$" horiz-adv-x="600" 
d="M539 215q0 -35 -10 -67t-32.5 -63.5t-66 -53t-104.5 -27.5v-50h-90v50q-55 5 -96 23.5t-64 45.5t-34.5 55t-14.5 60l94 16q4 -49 36 -77.5t79 -37.5v242q-43 6 -72.5 14.5t-60 26.5t-46 52t-15.5 83q0 80 53 131.5t141 62.5v43h90v-45q74 -11 123 -53.5t59 -108.5
l-91 -16q-10 80 -91 101v-213q37 -5 62.5 -10.5t56.5 -18.5t49.5 -33t31.5 -53.5t13 -78.5zM140 507q0 -39 25 -58.5t71 -27.5v201q-43 -9 -69.5 -37.5t-26.5 -77.5zM326 87q115 21 115 128q0 48 -29.5 70.5t-85.5 32.5v-231z" />
    <glyph glyph-name="percent" unicode="%" horiz-adv-x="690" 
d="M161 410q40 0 71.5 16t47.5 41.5t23.5 56.5t0 62t-23.5 56.5t-47.5 41.5t-71.5 16t-71.5 -16t-47.5 -41.5t-23.5 -56.5t0 -62t23.5 -56.5t47.5 -41.5t71.5 -16zM159 0l463 700h-99l-463 -700h99zM161 479q-40 0 -56 38t0 76t56 38t56 -38t0 -76t-56 -38zM529 0
q46 0 80 21.5t49.5 53.5t15.5 70t-15.5 70t-49.5 53.5t-80 21.5t-80 -21.5t-49.5 -53.5t-15.5 -70t15.5 -70t49.5 -53.5t80 -21.5zM529 69q-40 0 -56 38t0 76t56 38t56 -38t0 -76t-56 -38z" />
    <glyph glyph-name="ampersand" unicode="&#x26;" horiz-adv-x="642" 
d="M627 -1q-97 0 -192 46q-59 -39 -132.5 -48t-137 11t-107 72.5t-43.5 126.5q0 75 35.5 116.5t97.5 65.5q-24 75 -24 153q0 45 19.5 80.5t51.5 54t70 27t76 0t70 -27t51.5 -54t19.5 -80.5q0 -21 -4.5 -40t-9.5 -33.5t-18 -28.5t-20.5 -22.5t-27 -19t-28 -15.5t-32.5 -13.5
t-31.5 -10.5t-33.5 -10q-9 -3 -13 -4q56 -119 165 -189q40 54 40 133h87q0 -99 -49 -173q60 -24 120 -24v-93zM220 542q0 -65 17 -124q38 11 58.5 18.5t45.5 22t36 35t11 48.5q0 40 -26 63t-58 23t-58 -23t-26 -63zM108 207q0 -45 24 -78t60.5 -46.5t81 -11t83.5 22.5
q-116 86 -179 219q-70 -38 -70 -106z" />
    <glyph glyph-name="quotesingle" unicode="'" horiz-adv-x="137" 
d="M97 507l20 146v47h-97v-47l20 -146h57z" />
    <glyph glyph-name="parenleft" unicode="(" horiz-adv-x="257" 
d="M20 308q0 69 15.5 134.5t37.5 110t43.5 79.5t37.5 52l15 16h73q-5 -5 -13.5 -15.5t-30 -47t-37.5 -78t-29.5 -109.5t-13.5 -142t13 -141.5t31 -111t36 -76.5t31 -48l13 -15h-73q-6 6 -16 17.5t-36 50t-45.5 81t-35.5 108.5t-16 135z" />
    <glyph glyph-name="parenright" unicode=")" horiz-adv-x="257" 
d="M237 308q0 -69 -15.5 -134.5t-37.5 -110t-43.5 -79.5t-36.5 -52l-16 -16h-73q5 5 13.5 15.5t30 47t37.5 78t29.5 109.5t13.5 142t-13 141.5t-31 111t-36 76.5t-31 48l-13 15h73q6 -6 16 -17.5t36 -50t45.5 -81t35.5 -108.5t16 -135z" />
    <glyph glyph-name="asterisk" unicode="*" horiz-adv-x="346" 
d="M219 545l107 -66v-1l-37 -54h-1l-88 69l6 -111v-1h-66v1l6 111l-88 -69l-38 54l1 1l106 66l-107 66v1l37 54h1l88 -69l-6 111v1h66v-1l-6 -111l88 69l38 -54l-1 -1z" />
    <glyph glyph-name="plus" unicode="+" horiz-adv-x="523" 
d="M493 240h-187v-187h-89v187h-187v89h187v187h89v-187h187v-89z" />
    <glyph glyph-name="comma" unicode="," horiz-adv-x="141" 
d="M121 101v-109q0 -72 -22.5 -95t-68.5 -23h-10v51h10q7 0 12.5 1t9.5 4.5t6.5 6t4.5 8t3 8.5t1.5 10.5t0.5 9.5v10v9h-48v109h101z" />
    <glyph glyph-name="hyphen" unicode="-" horiz-adv-x="378" 
d="M348 363v-89h-318v89h318z" />
    <glyph glyph-name="period" unicode="." horiz-adv-x="141" 
d="M20 101h101v-109h-101v109z" />
    <glyph glyph-name="slash" unicode="/" horiz-adv-x="525" 
d="M114 -95l396 795h-99l-396 -795h99z" />
    <glyph glyph-name="zero" unicode="0" horiz-adv-x="524" 
d="M262 706q47 0 84.5 -13.5t62.5 -34.5t43 -53t27.5 -62t14.5 -69t6.5 -66t1.5 -60t-1.5 -60t-6.5 -66t-14.5 -69t-27.5 -62t-43 -53t-62.5 -34.5t-84.5 -13.5t-84.5 13.5t-62.5 34.5t-43 53t-27.5 62t-14.5 69t-6.5 66t-1.5 60t1.5 60t6.5 66t14.5 69t27.5 62t43 53
t62.5 34.5t84.5 13.5zM262 67q55 0 87.5 41t43 99t10.5 141t-10.5 141t-43 99t-87.5 41t-87.5 -41t-43 -99t-10.5 -141t10.5 -141t43 -99t87.5 -41z" />
    <glyph glyph-name="one" unicode="1" horiz-adv-x="246" 
d="M222 0h-97v567q-25 -85 -110 -85v96q52 0 81 24.5t29 97.5h97v-700z" />
    <glyph glyph-name="two" unicode="2" horiz-adv-x="497" 
d="M482 89v-89h-460v20q0 70 20 126t51.5 91t70 63t77.5 49t70.5 41.5t51.5 48t20 61.5q0 126 -129 126q-61 0 -93.5 -27.5t-38.5 -89.5l-91 17q10 89 69 134.5t154 45.5q102 0 163 -52.5t61 -153.5q0 -62 -31 -106t-78 -71.5t-95.5 -55t-90 -72t-55.5 -106.5h354z" />
    <glyph glyph-name="three" unicode="3" horiz-adv-x="515" 
d="M384 363q109 -40 109 -163q0 -100 -66 -153t-170 -53q-96 0 -161 46t-74 134l95 17q11 -114 140 -114q137 0 137 123q0 117 -137 119h-64l10 82h54q56 0 87 29.5t31 87.5q0 110 -118 110q-55 0 -84.5 -24t-34.5 -79l-90 12q6 82 63.5 125.5t145.5 42.5q94 -1 152 -49
t58 -138q0 -108 -83 -155z" />
    <glyph glyph-name="four" unicode="4" horiz-adv-x="558" 
d="M533 183h-106v-183h-97v183h-315v86l261 431h151v-431h116zM330 269v355l-215 -355h215z" />
    <glyph glyph-name="five" unicode="5" horiz-adv-x="516" 
d="M131 410q33 29 80 41t96 3t91 -34.5t69 -77.5t27 -120q0 -114 -67.5 -170t-168.5 -56q-96 0 -162.5 50t-73.5 153l93 13q4 -67 45 -102t98 -35q60 0 100.5 37.5t40.5 109.5q0 119 -84 157q-64 28 -131 -2q-60 -27 -67 -79v-4h-92l50 406h404l-10 -83h-310z" />
    <glyph glyph-name="six" unicode="6" horiz-adv-x="517" 
d="M110 335q25 51 73 80.5t100.5 28.5t100.5 -22.5t79.5 -74.5t31.5 -125q0 -114 -67.5 -170t-168.5 -56q-110 0 -173.5 79.5t-63.5 237.5q0 171 68.5 281.5t193.5 110.5q176 0 209 -161l-83 -25q-16 57 -35 78q-33 36 -91 36q-66 0 -117 -75t-57 -223zM259 75
q60 0 101.5 37.5t41.5 109.5t-42 109t-101 38q-58 1 -100.5 -37t-42.5 -110t41.5 -109.5t101.5 -37.5z" />
    <glyph glyph-name="seven" unicode="7" horiz-adv-x="478" 
d="M463 700v-86l-348 -614h-100l348 614h-347v86h447z" />
    <glyph glyph-name="eight" unicode="8" horiz-adv-x="516" 
d="M386 370q109 -45 109 -170q0 -99 -66.5 -152.5t-170.5 -53.5t-170.5 53.5t-66.5 152.5q0 124 108 171q-81 42 -81 147q0 91 58 139.5t152 47.5t152 -49t58 -138q0 -104 -82 -148zM258 634q-119 0 -119 -116q0 -58 32 -90t87 -32t87 32t32 90q0 116 -119 116zM258 75
q64 0 101 31t37 94t-37.5 95.5t-100.5 33.5t-100.5 -32.5t-37.5 -96.5t37 -94t101 -31z" />
    <glyph glyph-name="nine" unicode="9" horiz-adv-x="517" 
d="M258 705q110 0 173.5 -79.5t63.5 -237.5q0 -171 -68.5 -281.5t-193.5 -110.5q-176 0 -209 161l83 25q16 -57 35 -78q31 -36 91 -36q66 0 117 75t57 223q-25 -51 -73 -80.5t-100.5 -28.5t-100.5 22.5t-79.5 74.5t-31.5 125q0 114 67.5 170t168.5 56zM258 332
q58 -1 100.5 37t42.5 110t-41.5 109.5t-101.5 37.5t-101.5 -37.5t-41.5 -109.5t42 -109t101 -38z" />
    <glyph glyph-name="colon" unicode=":" horiz-adv-x="141" 
d="M20 422h101v-109h-101v109zM20 101h101v-109h-101v109z" />
    <glyph glyph-name="semicolon" unicode=";" horiz-adv-x="123" 
d="M121 422v-109h-101v109h101zM20 101h101v-109q0 -72 -22.5 -95t-68.5 -23h-10v51h10q7 0 12.5 1t9.5 4.5t6.5 6t4.5 8t3 8.5t1.5 10.5t0.5 9.5v10v9h-48v109z" />
    <glyph glyph-name="less" unicode="&#x3c;" horiz-adv-x="352" 
d="M337 376l-222 -99l222 -100v-89l-322 144v89l322 144v-89z" />
    <glyph glyph-name="equal" unicode="=" horiz-adv-x="523" 
d="M493 449v-89h-463v89h463zM493 247v-89h-463v89h463z" />
    <glyph glyph-name="greater" unicode="&#x3e;" horiz-adv-x="352" 
d="M337 321v-89l-322 -144v89l222 100l-222 99v89z" />
    <glyph glyph-name="question" unicode="?" horiz-adv-x="470" 
d="M233 706q92 0 157 -50.5t65 -155.5q0 -41 -15 -72t-38 -48t-49.5 -36t-49.5 -36.5t-38 -49.5t-15 -75v-17h-96v17q0 63 21 108.5t51 69t60 42.5t51 42.5t21 54.5q0 53 -33.5 90.5t-91.5 37.5q-59 0 -92 -37t-33 -91h-93q0 55 19 96t51.5 64.5t69.5 34.5t78 11zM151 101
h101v-109h-101v109z" />
    <glyph glyph-name="at" unicode="@" horiz-adv-x="798" 
d="M574 476v-272q0 -58 30 -71q29 -14 54 29q30 54 30 158q0 138 -74.5 222.5t-215.5 84.5t-214.5 -84t-73.5 -223q0 -123 43.5 -200.5t122 -106t180.5 -20.5t228 50v-79q-150 -49 -272 -51.5t-208.5 40.5t-134 136t-47.5 231q0 176 99 278t277 102q173 0 275.5 -103
t102.5 -277q0 -161 -83 -228q-58 -46 -121 -22q-60 23 -76 92q-3 13 -4 27q-32 -60 -116 -60q-170 0 -170 180t170 180q83 0 115 -59v46h83zM390 181q48 0 74.5 28t26.5 100t-26.5 100t-74.5 28q-92 0 -92 -128t92 -128z" />
    <glyph glyph-name="A" unicode="A" horiz-adv-x="671" 
d="M472 191h-273l-68 -191h-109l264 700h99l264 -700h-109zM442 275l-106 296l-106 -296h212z" />
    <glyph glyph-name="B" unicode="B" horiz-adv-x="574" 
d="M428 377q62 -15 93 -53.5t31 -112.5q0 -211 -256 -211h-266v700h236q119 0 177.5 -44.5t58.5 -139.5q0 -103 -74 -139zM129 618v-210h137q147 0 147 108q0 56 -36.5 79t-110.5 23h-137zM296 82q157 0 157 129q0 64 -38.5 91.5t-118.5 27.5h-167v-248h167z" />
    <glyph glyph-name="C" unicode="C" horiz-adv-x="683" 
d="M127 350q0 139 58.5 206.5t160.5 66.5q180 -2 220 -181l95 19q-27 120 -111.5 182t-203.5 64q-144 2 -234 -89.5t-90 -267.5t90 -267.5t234 -89.5q119 2 203.5 64t111.5 182l-95 19q-40 -179 -220 -181q-102 -1 -160.5 66.5t-58.5 206.5z" />
    <glyph glyph-name="D" unicode="D" horiz-adv-x="645" 
d="M267 700q100 0 179 -37t128 -117.5t49 -195.5t-49 -195.5t-128 -117.5t-179 -37h-237v700h237zM267 83q112 0 182.5 66.5t70.5 200.5q0 135 -70.5 201t-182.5 66h-138v-534h138z" />
    <glyph glyph-name="E" unicode="E" horiz-adv-x="512" 
d="M129 611v-216h306v-89h-306v-217h361v-89h-460v700h460v-89h-361z" />
    <glyph glyph-name="F" unicode="F" horiz-adv-x="512" 
d="M129 611v-216h306v-89h-306v-306h-99v700h460v-89h-361z" />
    <glyph glyph-name="G" unicode="G" horiz-adv-x="692" 
d="M670 0h-86v153q-59 -160 -238 -160q-145 0 -234.5 91t-89.5 266q0 176 90 267.5t234 89.5q119 -2 203.5 -64t111.5 -182l-95 -19q-40 179 -220 181q-102 1 -160.5 -66.5t-58.5 -206.5t58.5 -206t160.5 -67q89 0 152.5 50.5t80.5 152.5h-157l10 85h238v-365z" />
    <glyph glyph-name="H" unicode="H" horiz-adv-x="596" 
d="M566 700v-700h-99v306h-338v-306h-99v700h99v-305h338v305h99z" />
    <glyph glyph-name="I" unicode="I" horiz-adv-x="159" 
d="M129 0v700h-99v-700h99z" />
    <glyph glyph-name="J" unicode="J" horiz-adv-x="489" 
d="M459 700v-477q0 -111 -62.5 -170.5t-156.5 -59.5q-87 0 -148 51t-70 145l96 17q6 -62 39.5 -93t82.5 -31q52 0 86 35.5t34 105.5v477h99z" />
    <glyph glyph-name="K" unicode="K" horiz-adv-x="590" 
d="M454 0l-228 316l-97 -120v-196h-99v700h99v-366l290 366h114l-249 -310l284 -390h-114z" />
    <glyph glyph-name="L" unicode="L" horiz-adv-x="475" 
d="M460 86v-86h-430v700h99v-614h331z" />
    <glyph glyph-name="M" unicode="M" horiz-adv-x="711" 
d="M681 0h-99v475l-182 -475h-89l-182 475v-475h-99v700h105l221 -582l220 582h105v-700z" />
    <glyph glyph-name="N" unicode="N" horiz-adv-x="613" 
d="M583 700v-700h-99l-355 550v-550h-99v700h99l355 -553v553h99z" />
    <glyph glyph-name="O" unicode="O" horiz-adv-x="712" 
d="M690 350q0 -174 -94 -265.5t-240 -91.5t-240 91.5t-94 265.5q0 175 94 267t240 90q147 -2 240.5 -93t93.5 -264zM585 350q0 138 -63 205t-166 68q-103 2 -166 -66.5t-63 -206.5t63 -205.5t166 -67.5t166 67.5t63 205.5z" />
    <glyph glyph-name="P" unicode="P" horiz-adv-x="552" 
d="M274 700q121 0 188.5 -60.5t67.5 -171.5t-67.5 -171.5t-188.5 -60.5h-145v-236h-99v700h244zM274 318q76 0 116.5 41t40.5 109t-40.5 109t-116.5 41h-145v-300h145z" />
    <glyph glyph-name="Q" unicode="Q" horiz-adv-x="712" 
d="M690 350q0 -167 -91 -263q38 -10 83 -10v-79q-89 0 -157 34q-75 -39 -169 -39q-146 0 -240 91.5t-94 265.5q0 175 94 267t240 90q147 -2 240.5 -93t93.5 -264zM127 350q0 -138 63 -205.5t166 -67.5q48 0 90 15q-12 13 -31 35t-25 29l63 49q40 -50 61 -69q71 71 71 214
q0 138 -63 205t-166 68q-103 2 -166 -66.5t-63 -206.5z" />
    <glyph glyph-name="R" unicode="R" horiz-adv-x="570" 
d="M436 0l-128 237q-8 -1 -24 -1h-155v-236h-99v700h254q121 0 188.5 -60.5t67.5 -171.5q0 -163 -138 -213l146 -255h-112zM129 318h155q76 0 116.5 41t40.5 109t-40.5 109t-116.5 41h-155v-300z" />
    <glyph glyph-name="S" unicode="S" horiz-adv-x="566" 
d="M22 185q4 -36 17.5 -67t42 -60.5t80 -46t122.5 -16.5q74 0 128 20.5t81 54.5t39 69t12 73q0 62 -22.5 103t-58.5 58.5t-79.5 27t-86.5 13.5t-79 11.5t-58.5 28t-22.5 56.5q0 63 42 92.5t102 29.5q54 0 93.5 -27t45.5 -81l93 17q-12 77 -75.5 122t-156.5 47
q-109 2 -176.5 -53t-67.5 -147q0 -58 22.5 -95.5t58.5 -53.5t79 -24.5t86.5 -13.5t79.5 -14t58.5 -33t22.5 -64q0 -71 -46.5 -102t-113.5 -31q-64 0 -112 29.5t-54 92.5z" />
    <glyph glyph-name="T" unicode="T" horiz-adv-x="590" 
d="M570 611h-225v-611h-99v611h-226v89h550v-89z" />
    <glyph glyph-name="U" unicode="U" horiz-adv-x="624" 
d="M492 700v-408q0 -109 -49.5 -162.5t-130.5 -53.5t-130.5 53.5t-49.5 162.5v408h-102v-407q0 -146 79.5 -223.5t202.5 -77.5t202.5 77.5t79.5 223.5v407h-102z" />
    <glyph glyph-name="V" unicode="V" horiz-adv-x="649" 
d="M627 700l-253 -700h-99l-253 700h109l194 -557l193 557h109z" />
    <glyph glyph-name="W" unicode="W" horiz-adv-x="957" 
d="M935 700l-219 -700h-99l-138 513l-139 -513h-99l-219 700h109l157 -525l140 525h101l140 -525l157 525h109z" />
    <glyph glyph-name="X" unicode="X" horiz-adv-x="646" 
d="M516 -1l-193 278l-193 -278h-110l246 360l-236 340h117l176 -257l176 257h117l-236 -340l246 -360h-110z" />
    <glyph glyph-name="Y" unicode="Y" horiz-adv-x="616" 
d="M601 699l-242 -354v-345h-100v345l-244 354h117l177 -264l175 264h117z" />
    <glyph glyph-name="Z" unicode="Z" horiz-adv-x="612" 
d="M590 89v-89h-568v89l433 522h-425v89h551v-89l-433 -522h442z" />
    <glyph glyph-name="bracketleft" unicode="[" horiz-adv-x="298" 
d="M129 611v-654h139v-89h-238v832h238v-89h-139z" />
    <glyph glyph-name="backslash" unicode="\" horiz-adv-x="525" 
d="M114 700h-99l396 -795h99z" />
    <glyph glyph-name="bracketright" unicode="]" horiz-adv-x="298" 
d="M268 -132h-238v89h139v654h-139v89h238v-832z" />
    <glyph glyph-name="asciicircum" unicode="^" horiz-adv-x="427" 
d="M313 500l-100 208l-100 -208h-88l144 300h89l144 -300h-89z" />
    <glyph glyph-name="underscore" unicode="_" horiz-adv-x="524" 
d="M474 -28v-89h-424v89h424z" />
    <glyph glyph-name="grave" unicode="`" horiz-adv-x="190" 
d="M55 558l-77 142h92l58 -142h-73z" />
    <glyph glyph-name="a" unicode="a" horiz-adv-x="490" 
d="M252 503q43 0 79 -10t67 -31.5t49 -61t18 -93.5v-307h-101v86q-29 -52 -87 -76t-114 -16t-98.5 47.5t-42.5 100.5q0 54 25.5 87.5t63.5 44.5t82 16t82 4.5t63.5 9t25.5 31.5q0 43 -33.5 64.5t-78.5 21.5q-47 0 -79 -18.5t-41 -71.5l-90 17q12 82 70 119t140 36zM128 142
q0 -57 54 -78t110 11q72 42 72 141v45q-19 -13 -62.5 -19.5t-80 -10t-65 -25.5t-28.5 -64z" />
    <glyph glyph-name="b" unicode="b" horiz-adv-x="545" 
d="M305 506q102 -1 160 -65.5t58 -190.5q0 -127 -58 -191.5t-160 -64.5q-124 0 -176 92v-86h-99v700h99v-286q53 94 176 92zM279 72q68 0 107 46t39 132t-39 131.5t-107 46.5q-66 1 -108 -41.5t-42 -136.5t41.5 -136t108.5 -42z" />
    <glyph glyph-name="c" unicode="c" horiz-adv-x="512" 
d="M22 250q0 -124 69.5 -190.5t173.5 -65.5q78 1 137.5 39.5t87.5 112.5l-87 32q-35 -99 -138 -101q-65 -1 -107 42.5t-42 130.5t42 130.5t107 42.5q103 -2 138 -101l87 32q-28 74 -87.5 112.5t-137.5 39.5q-104 1 -173.5 -65.5t-69.5 -190.5z" />
    <glyph glyph-name="d" unicode="d" horiz-adv-x="546" 
d="M516 700v-700h-100v86q-52 -92 -176 -92q-102 0 -160 64.5t-58 191.5q0 126 58 190.5t160 65.5q123 2 176 -92v286h100zM266 72q67 0 108.5 42t41.5 136t-42 136.5t-108 41.5q-68 -1 -107 -46.5t-39 -131.5t39 -132t107 -46z" />
    <glyph glyph-name="e" unicode="e" horiz-adv-x="530" 
d="M508 250q0 -21 -3 -40h-386q9 -67 49.5 -100.5t96.5 -32.5q106 2 145 96l86 -34q-29 -70 -91 -107t-140 -38q-104 -1 -173.5 65.5t-69.5 190.5t69.5 190.5t173.5 65.5q105 -1 174 -66.5t69 -189.5zM265 423q-56 1 -95.5 -32t-50.5 -98h292q-11 65 -50.5 97t-95.5 33z" />
    <glyph glyph-name="f" unicode="f" horiz-adv-x="295" 
d="M273 608q-47 0 -64 -15.5t-17 -56.5v-30h81v-79h-81v-427h-100v427h-82v79h82v30q0 42 6.5 69.5t25 50.5t55.5 33.5t94 10.5v-92z" />
    <glyph glyph-name="g" unicode="g" horiz-adv-x="546" 
d="M516 500v-493q0 -124 -73.5 -190.5t-184.5 -65.5q-78 1 -137.5 39.5t-87.5 112.5l87 32q35 -99 138 -101q70 -1 114 42.5t44 130.5v79q-52 -92 -176 -92q-102 0 -160 64.5t-58 191.5q0 126 58 190.5t160 65.5q123 2 176 -92v86h100zM266 72q67 0 108.5 42t41.5 136
t-42 136.5t-108 41.5q-68 -1 -107 -46.5t-39 -131.5t39 -132t107 -46z" />
    <glyph glyph-name="h" unicode="h" horiz-adv-x="486" 
d="M320 508q40 0 68 -15.5t42 -35.5t21.5 -56t8.5 -58.5t1 -60.5v-282h-100v282q0 143 -78 143q-153 0 -153 -238v-187h-99v700h99v-325q30 67 80 100t110 33z" />
    <glyph glyph-name="i" unicode="i" horiz-adv-x="163" 
d="M30 700h103v-111h-103v111zM131 0v500h-99v-500h99z" />
    <glyph glyph-name="j" unicode="j" horiz-adv-x="174" 
d="M144 700v-111h-104v111h104zM42 500h100v-500q0 -79 -33.5 -119.5t-117.5 -40.5h-22v88h22q29 0 40 16.5t11 55.5v500z" />
    <glyph glyph-name="k" unicode="k" horiz-adv-x="493" 
d="M253 286l219 -285h-113l-169 219l-60 -63v-157h-100v700h100v-422l207 222h120zM473 0l-1 1h1v-1z" />
    <glyph glyph-name="l" unicode="l" horiz-adv-x="169" 
d="M134 0v700h-99v-700h99z" />
    <glyph glyph-name="m" unicode="m" horiz-adv-x="756" 
d="M590 508q40 0 68 -15.5t42 -35.5t21.5 -56t8.5 -58.5t1 -60.5v-282h-100v282q0 143 -78 143q-19 0 -32.5 -2.5t-32 -15.5t-30 -37t-20 -70.5t-8.5 -112.5v-187h-100v282q0 143 -78 143q-19 0 -32.5 -2.5t-32 -15.5t-30 -37t-20 -70.5t-8.5 -112.5v-187h-99v500h99v-104
q49 112 160 112q115 0 136 -125q46 125 165 125z" />
    <glyph glyph-name="n" unicode="n" horiz-adv-x="476" 
d="M314 508q29 0 51.5 -8t37.5 -19.5t25 -32.5t15 -37t7.5 -43.5t3 -42.5t0.5 -43v-282h-100v282q0 143 -77 143q-18 0 -32.5 -2.5t-37.5 -16t-38.5 -36.5t-27.5 -70.5t-12 -112.5v-187h-99v500h99v-121q29 65 77.5 97t107.5 32z" />
    <glyph glyph-name="o" unicode="o" horiz-adv-x="536" 
d="M514 250q0 -124 -70.5 -190t-175.5 -66t-175.5 66t-70.5 190t70.5 190.5t175.5 65.5q106 -1 176 -67t70 -189zM419 250q0 86 -42.5 129t-108.5 44q-65 1 -108 -42.5t-43 -130.5t42.5 -130t108.5 -43t108.5 43t42.5 130z" />
    <glyph glyph-name="p" unicode="p" horiz-adv-x="546" 
d="M306 506q102 -1 160 -65.5t58 -190.5q0 -127 -58 -191.5t-160 -64.5q-124 0 -176 92v-286h-98l-2 700h100v-86q53 94 176 92zM280 72q68 0 107 46t39 132t-39 131.5t-107 46.5q-66 1 -108 -41.5t-42 -136.5t41.5 -136t108.5 -42z" />
    <glyph glyph-name="q" unicode="q" horiz-adv-x="546" 
d="M416 500h100v-700h-100v286q-52 -92 -176 -92q-102 0 -160 64.5t-58 191.5q0 126 58 190.5t160 65.5q123 2 176 -92v86zM266 72q67 0 108.5 42t41.5 136t-42 136.5t-108 41.5q-68 -1 -107 -46.5t-39 -131.5t39 -132t107 -46z" />
    <glyph glyph-name="r" unicode="r" horiz-adv-x="321" 
d="M301 508v-88q-90 0 -130.5 -50.5t-40.5 -182.5v-187h-100v500h100v-92q46 100 169 100h2z" />
    <glyph glyph-name="s" unicode="s" horiz-adv-x="465" 
d="M21 135q6 -45 31.5 -76t62 -43.5t63.5 -17t53 -4.5q22 0 44 2.5t54 12.5t55.5 26.5t41 49t17.5 75.5q0 50 -23.5 80.5t-58.5 39.5t-75.5 14t-75.5 6.5t-58.5 14.5t-23.5 40q0 78 103 78q94 0 110 -70l90 26q-23 118 -200 118q-29 0 -55.5 -4t-63.5 -17.5t-59.5 -47
t-22.5 -83.5q0 -49 23.5 -79.5t58.5 -40t75.5 -15t75.5 -7t58.5 -14.5t23.5 -39q0 -42 -33 -64t-81 -22q-44 0 -76.5 21t-38.5 60z" />
    <glyph glyph-name="t" unicode="t" horiz-adv-x="295" 
d="M191 427v-299q0 -37 40 -37h42v-91h-42q-47 0 -74 5.5t-42 22t-19 38.5t-4 62v299h-82v79h82v94l99 40v-134h82v-79h-82z" />
    <glyph glyph-name="u" unicode="u" horiz-adv-x="481" 
d="M451 500v-500h-100v111q-53 -119 -179 -119q-34 0 -59 9.5t-40 29t-24.5 38.5t-13 49.5t-4.5 49.5t-1 50v282h100v-282q0 -143 79 -143q12 0 22.5 2t28.5 8.5t32.5 22.5t28.5 40.5t22 67t8 97.5v187h100z" />
    <glyph glyph-name="v" unicode="v" horiz-adv-x="501" 
d="M481 500l-187 -500h-87l-187 500h105l126 -371l125 371h105z" />
    <glyph glyph-name="w" unicode="w" horiz-adv-x="714" 
d="M694 500l-157 -500h-84l-96 327l-96 -327h-84l-157 500h102l95 -343l89 343h102l89 -343l95 343h102z" />
    <glyph glyph-name="x" unicode="x" horiz-adv-x="490" 
d="M362 0l-117 174l-117 -174h-113l178 251l-2 4l-174 245h114l114 -171l114 171h114l-174 -245l-2 -4l178 -251h-113z" />
    <glyph glyph-name="y" unicode="y" horiz-adv-x="497" 
d="M482 500l-214 -571q-31 -92 -64 -118t-102 -26h-27v87h27q35 0 48 10.5t27 46.5l25 72l-187 499h109l124 -366l125 366h109z" />
    <glyph glyph-name="z" unicode="z" horiz-adv-x="455" 
d="M430 79v-79h-405v79l286 342h-278v79h394v-79l-286 -342h289z" />
    <glyph glyph-name="braceleft" unicode="{" horiz-adv-x="274" 
d="M195 372q0 -63 -53 -82q53 -20 53 -83v-199q0 -35 10.5 -46t38.5 -11v-72q-63 0 -100.5 26.5t-37.5 102.5v199q0 17 -7 27.5t-22 14.5t-25 4.5t-29 0.5h-8v71q57 0 73 10q18 12 18 37v199q0 76 37.5 102.5t100.5 26.5v-72q-28 0 -38.5 -11t-10.5 -46v-199z" />
    <glyph glyph-name="bar" unicode="|" horiz-adv-x="159" 
d="M129 -200v900h-99v-900h99z" />
    <glyph glyph-name="braceright" unicode="}" horiz-adv-x="274" 
d="M168 372q0 -17 7 -27.5t22 -14.5t25 -4.5t29 -0.5h8v-71q-57 0 -73 -10q-18 -12 -18 -37v-199q0 -76 -37.5 -102.5t-100.5 -26.5v72q28 0 38.5 11t10.5 46v199q0 63 53 83q-53 19 -53 82v199q0 35 -10.5 46t-38.5 11v72q63 0 100.5 -26.5t37.5 -102.5v-199z" />
    <glyph glyph-name="asciitilde" unicode="~" horiz-adv-x="453" 
d="M320 212q58 6 88 43.5t24 95.5l-83 -10q2 -22 -5 -33t-33 -14q-19 -2 -47 16t-62 36t-69 14q-59 -7 -88.5 -45.5t-23.5 -93.5l83 9q-3 42 39 47q20 3 59 -25q58 -41 103 -41z" />
    <glyph glyph-name="exclamdown" unicode="&#xa1;" horiz-adv-x="147" 
d="M124 391h-101v109h101v-109zM43 327l-21 -206v-329h103v329l-21 206h-61z" />
    <glyph glyph-name="cent" unicode="&#xa2;" horiz-adv-x="512" 
d="M265 176q103 2 138 101l87 -32q-48 -125 -179 -148v-97h-90v96q-88 13 -143.5 78t-55.5 175q0 109 55 174.5t142 78.5v98h90v-99q133 -21 181 -148l-87 -32q-35 99 -138 101q-65 1 -107 -42.5t-42 -130.5t42 -130.5t107 -42.5z" />
    <glyph glyph-name="sterling" unicode="&#xa3;" horiz-adv-x="538" 
d="M523 0h-508v78q55 0 91.5 13.5t53 38.5t22.5 50t6 59q0 42 -18 80h-108v82h57q-37 59 -37 117q0 90 58 138t152 49q88 1 145.5 -42.5t63.5 -125.5l-90 -12q-5 55 -34.5 79t-84.5 24q-118 0 -118 -110q0 -50 40 -117h142l10 -82h-105q16 -37 16 -80q0 -106 -80 -161h316z
" />
    <glyph glyph-name="currency" unicode="&#xa4;" horiz-adv-x="483" 
d="M424 325q0 -50 -25 -92l62 -62l-66 -66l-61 62q-42 -25 -92 -25t-92 25l-62 -62l-66 66l62 62q-25 42 -25 92t25 92l-62 62l66 66l62 -62q42 25 92 25t92 -25l61 62l66 -66l-62 -62q25 -42 25 -92zM153 325q0 -37 26 -63t63 -26q36 0 62 26t26 63t-26 63t-62 26
q-37 0 -63 -26t-26 -63z" />
    <glyph glyph-name="yen" unicode="&#xa5;" horiz-adv-x="646" 
d="M374 289h95v-73h-95v-47h95v-73h-95v-96h-100v96h-95v73h95v47h-95v73h95v56l-244 354h117l177 -264l175 264h117l-242 -354v-56z" />
    <glyph glyph-name="brokenbar" unicode="&#xa6;" horiz-adv-x="159" 
d="M129 319v379h-99v-379h99zM129 -200v379h-99v-379h99z" />
    <glyph glyph-name="section" unicode="&#xa7;" horiz-adv-x="464" 
d="M354 177q42 -10 65 -40t23 -93q0 -43 -17.5 -75.5t-41 -49t-55.5 -26.5t-54 -12.5t-44 -2.5q-20 0 -40 2t-50 10.5t-53 23t-41.5 41.5t-23.5 64l93 18q6 -39 38 -59t77 -20q48 0 81 22t33 64q0 26 -23.5 39t-58.5 14.5t-75.5 7t-75.5 15t-58.5 40t-23.5 79.5q0 86 81 125
q-42 10 -65 40t-23 93q0 43 17.5 75.5t41 49t55.5 26.5t54 12.5t44 2.5q20 0 40 -2t50 -10.5t53 -23t41.5 -41.5t23.5 -64l-93 -18q-6 39 -38 59t-77 20q-48 0 -81 -22t-33 -64q0 -26 23.5 -39t58.5 -14.5t75.5 -7t75.5 -15t58.5 -40t23.5 -79.5q0 -86 -81 -125zM127 266
q0 -64 56 -78q77 -14 115.5 11.5t38.5 75.5q0 64 -56 78q-77 14 -115.5 -11.5t-38.5 -75.5z" />
    <glyph glyph-name="dieresis" unicode="&#xa8;" horiz-adv-x="260" 
d="M10 700h101v-109h-101v109zM149 700h101v-109h-101v109z" />
    <glyph glyph-name="copyright" unicode="&#xa9;" horiz-adv-x="794" 
d="M397 -50q-155 0 -265 110t-110 265t110 265t265 110t265 -110t110 -265t-110 -265t-265 -110zM397 30q122 0 208.5 86.5t86.5 208.5t-86.5 208.5t-208.5 86.5t-208.5 -86.5t-86.5 -208.5t86.5 -208.5t208.5 -86.5zM202 326q-1 102 56.5 157t143.5 54q63 -1 112.5 -32.5
t72.5 -92.5l-72 -27q-29 81 -113 83q-53 1 -88 -35t-35 -107t35 -106.5t88 -35.5q83 0 113 83l72 -27q-23 -61 -72.5 -92.5t-112.5 -32.5q-86 -1 -142.5 54t-57.5 157z" />
    <glyph glyph-name="guillemotleft" unicode="&#xab;" horiz-adv-x="470" 
d="M83 277l152 -100v-89l-220 144v89l220 144v-89zM455 374l-152 -99l152 -100v-89l-220 144v89l220 144v-89z" />
    <glyph glyph-name="logicalnot" unicode="&#xac;" horiz-adv-x="480" 
d="M450 110h-92v187h-333v83h425v-270z" />
    <glyph glyph-name="registered" unicode="&#xae;" horiz-adv-x="356" 
d="M178 745q64 0 110 -45.5t46 -110.5t-46 -110.5t-110 -45.5t-110 45.5t-46 110.5t46 110.5t110 45.5zM178 460q53 0 91 38t38 91t-38 91t-91 38t-91 -38t-38 -91t38 -91t91 -38zM243 618q0 -40 -34 -52l36 -62h-26l-32 58h-44v-58h-24v171h62q29 0 45.5 -15t16.5 -42z
M143 582h38q38 0 38 36q0 37 -38 37h-38v-73z" />
    <glyph glyph-name="macron" unicode="&#xaf;" horiz-adv-x="315" 
d="M295 640v-71h-275v71h275z" />
    <glyph glyph-name="degree" unicode="&#xb0;" horiz-adv-x="356" 
d="M178 433q-64 0 -110 45.5t-46 110.5t46 110.5t110 45.5t110 -45.5t46 -110.5t-46 -110.5t-110 -45.5zM178 493q40 0 68 28t28 68t-28 68t-68 28t-68 -28t-28 -68t28 -68t68 -28z" />
    <glyph glyph-name="plusminus" unicode="&#xb1;" horiz-adv-x="523" 
d="M493 396v-89h-187v-147h-89v147h-187v89h187v147h89v-147h187zM30 119h463v-79h-463v79z" />
    <glyph glyph-name="acute" unicode="&#xb4;" horiz-adv-x="190" 
d="M78 697h92l-77 -142h-73z" />
    <glyph glyph-name="paragraph" unicode="&#xb6;" horiz-adv-x="485" 
d="M30 497q0 86 61.5 147.5t148.5 61.5h86v-794h-86v375q-87 0 -148.5 61.5t-61.5 148.5zM455 706v-794h-86v794h86z" />
    <glyph glyph-name="periodcentered" unicode="&#xb7;" horiz-adv-x="141" 
d="M20 422h101v-109h-101v109z" />
    <glyph glyph-name="cedilla" unicode="&#xb8;" horiz-adv-x="282" 
d="M79 -66v-38q21 0 34 -1t32 -5t28.5 -15t9.5 -28q-1 -40 -45 -38.5t-73 38.5l-45 -48q29 -44 87.5 -57t106.5 15t48 90q0 47 -35 69.5t-83 22.5l35 75h-58z" />
    <glyph glyph-name="guillemotright" unicode="&#xbb;" horiz-adv-x="470" 
d="M455 321v-89l-220 -144v89l152 100l-152 99v89zM235 230l-220 -144v89l152 100l-152 99v89l220 -144v-89z" />
    <glyph glyph-name="questiondown" unicode="&#xbf;" horiz-adv-x="470" 
d="M319 404h-101v109h101v-109zM455 5q0 -55 -19 -96t-51.5 -64.5t-69.5 -34.5t-78 -11q-92 0 -157 50.5t-65 155.5q0 39 11.5 68.5t29.5 46.5t39.5 31t43.5 27.5t40 30.5t29.5 45.5t11.5 67.5v17h96v-17q0 -64 -21 -108.5t-51 -67.5t-60 -41t-51 -42t-21 -58
q0 -54 31.5 -91t93.5 -37q59 0 92 37t33 91h93z" />
    <glyph glyph-name="Agrave" unicode="&#xc0;" horiz-adv-x="671" 
d="M299 758l-77 142h92l58 -142h-73zM472 191h-273l-68 -191h-109l264 700h99l264 -700h-109zM442 275l-106 296l-106 -296h212z" />
    <glyph glyph-name="Aacute" unicode="&#xc1;" horiz-adv-x="671" 
d="M375 755h-73l58 142h92zM472 191h-273l-68 -191h-109l264 700h99l264 -700h-109zM442 275l-106 296l-106 -296h212z" />
    <glyph glyph-name="Acircumflex" unicode="&#xc2;" horiz-adv-x="671" 
d="M260 781h-94l127 119h81l127 -119h-94l-73 93zM472 191h-273l-68 -191h-109l264 700h99l264 -700h-109zM442 275l-106 296l-106 -296h212z" />
    <glyph glyph-name="Atilde" unicode="&#xc3;" horiz-adv-x="671" 
d="M278 807q-29 1 -45.5 -14t-29.5 -43l-51 41q23 46 51.5 65t77.5 16q37 -2 71 -29t51 -28q25 -1 39 11t24 40l63 -23q-11 -35 -44.5 -65.5t-84.5 -27.5q-34 2 -66.5 29t-55.5 28zM472 191h-273l-68 -191h-109l264 700h99l264 -700h-109zM442 275l-106 296l-106 -296h212z
" />
    <glyph glyph-name="Adieresis" unicode="&#xc4;" horiz-adv-x="671" 
d="M314 791h-101v109h101v-109zM453 791h-101v109h101v-109zM472 191h-273l-68 -191h-109l264 700h99l264 -700h-109zM442 275l-106 296l-106 -296h212z" />
    <glyph glyph-name="Aring" unicode="&#xc5;" horiz-adv-x="671" 
d="M334 744q-38 0 -64.5 26.5t-26.5 64.5t26.5 64t64.5 26t64 -26.5t26 -63.5q0 -38 -26 -64.5t-64 -26.5zM334 872q-16 0 -27 -11t-11 -26q0 -16 11 -27t27 -11q15 0 26 11t11 27q0 15 -11 26t-26 11zM472 191h-273l-68 -191h-109l264 700h99l264 -700h-109zM442 275
l-106 296l-106 -296h212z" />
    <glyph glyph-name="AE" unicode="&#xc6;" horiz-adv-x="907" 
d="M516 611v-216h306v-89h-306v-217h361v-89h-460v191h-218l-68 -191h-109l264 700h591v-89h-361zM350 611l-120 -336h187v336h-67z" />
    <glyph glyph-name="Ccedilla" unicode="&#xc7;" horiz-adv-x="683" 
d="M346 77q180 2 220 181l95 -19q-25 -110 -99 -172t-181 -72l-26 -56q48 0 83 -22.5t35 -69.5q0 -62 -48 -90t-106.5 -15t-87.5 57l45 48q29 -37 73 -38.5t45 38.5q0 17 -9.5 28t-28.5 15t-32 5t-34 1v38l31 59q-134 7 -216.5 98t-82.5 259q0 176 90 267.5t234 89.5
q119 -2 203.5 -64t111.5 -182l-95 -19q-40 179 -220 181q-102 1 -160.5 -66.5t-58.5 -206.5t58.5 -206.5t160.5 -66.5z" />
    <glyph glyph-name="Egrave" unicode="&#xc8;" horiz-adv-x="512" 
d="M218 758l-77 142h92l58 -142h-73zM129 611v-216h306v-89h-306v-217h361v-89h-460v700h460v-89h-361z" />
    <glyph glyph-name="Eacute" unicode="&#xc9;" horiz-adv-x="512" 
d="M294 755h-73l58 142h92zM129 611v-216h306v-89h-306v-217h361v-89h-460v700h460v-89h-361z" />
    <glyph glyph-name="Ecircumflex" unicode="&#xca;" horiz-adv-x="512" 
d="M179 781h-94l127 119h81l127 -119h-94l-73 93zM129 611v-216h306v-89h-306v-217h361v-89h-460v700h460v-89h-361z" />
    <glyph glyph-name="Edieresis" unicode="&#xcb;" horiz-adv-x="512" 
d="M233 791h-101v109h101v-109zM372 791h-101v109h101v-109zM129 611v-216h306v-89h-306v-217h361v-89h-460v700h460v-89h-361z" />
    <glyph glyph-name="Igrave" unicode="&#xcc;" horiz-adv-x="159" 
d="M43 758l-77 142h92l58 -142h-73zM129 0v700h-99v-700h99z" />
    <glyph glyph-name="Iacute" unicode="&#xcd;" horiz-adv-x="159" 
d="M104 897h92l-77 -142h-73zM129 0v700h-99v-700h99z" />
    <glyph glyph-name="Icircumflex" unicode="&#xce;" horiz-adv-x="159" 
d="M245 781h-94l-73 93l-74 -93h-94l127 119h81zM30 700h99v-700h-99v700z" />
    <glyph glyph-name="Idieresis" unicode="&#xcf;" horiz-adv-x="159" 
d="M-43 900h101v-109h-101v109zM96 900h101v-109h-101v109zM129 0v700h-99v-700h99z" />
    <glyph glyph-name="Eth" unicode="&#xd0;" horiz-adv-x="690" 
d="M312 700q100 0 179 -37t128 -117.5t49 -195.5t-49 -195.5t-128 -117.5t-179 -37h-237v313h-65v78h65v309h237zM312 83q112 0 182.5 66.5t70.5 200.5q0 135 -70.5 201t-182.5 66h-138v-226h75v-78h-75v-230h138z" />
    <glyph glyph-name="Ntilde" unicode="&#xd1;" horiz-adv-x="613" 
d="M256 807q-29 1 -45.5 -14t-29.5 -43l-51 41q23 46 51.5 65t77.5 16q37 -2 71 -29t51 -28q25 -1 39 11t24 40l63 -23q-11 -35 -44.5 -65.5t-84.5 -27.5q-34 2 -66.5 29t-55.5 28zM583 700v-700h-99l-355 550v-550h-99v700h99l355 -553v553h99z" />
    <glyph glyph-name="Ograve" unicode="&#xd2;" horiz-adv-x="712" 
d="M321 758l-77 142h92l58 -142h-73zM690 350q0 -174 -94 -265.5t-240 -91.5t-240 91.5t-94 265.5q0 175 94 267t240 90q147 -2 240.5 -93t93.5 -264zM585 350q0 138 -63 205t-166 68q-103 2 -166 -66.5t-63 -206.5t63 -205.5t166 -67.5t166 67.5t63 205.5z" />
    <glyph glyph-name="Oacute" unicode="&#xd3;" horiz-adv-x="712" 
d="M382 897h92l-77 -142h-73zM690 350q0 -174 -94 -265.5t-240 -91.5t-240 91.5t-94 265.5q0 175 94 267t240 90q147 -2 240.5 -93t93.5 -264zM585 350q0 138 -63 205t-166 68q-103 2 -166 -66.5t-63 -206.5t63 -205.5t166 -67.5t166 67.5t63 205.5z" />
    <glyph glyph-name="Ocircumflex" unicode="&#xd4;" horiz-adv-x="712" 
d="M282 781h-94l127 119h81l127 -119h-94l-73 93zM356 707q147 -2 240.5 -93t93.5 -264q0 -174 -94 -265.5t-240 -91.5t-240 91.5t-94 265.5q0 175 94 267t240 90zM356 77q103 0 166 67.5t63 205.5t-63 205t-166 68q-103 2 -166 -66.5t-63 -206.5t63 -205.5t166 -67.5z" />
    <glyph glyph-name="Otilde" unicode="&#xd5;" horiz-adv-x="712" 
d="M174 791q23 46 51.5 65t77.5 16q37 -2 71 -29t51 -28q25 -1 39 11t24 40l63 -23q-11 -35 -44.5 -65.5t-84.5 -27.5q-34 2 -66.5 29t-55.5 28q-29 1 -45.5 -14t-29.5 -43zM690 350q0 -174 -94 -265.5t-240 -91.5t-240 91.5t-94 265.5q0 175 94 267t240 90
q147 -2 240.5 -93t93.5 -264zM585 350q0 138 -63 205t-166 68q-103 2 -166 -66.5t-63 -206.5t63 -205.5t166 -67.5t166 67.5t63 205.5z" />
    <glyph glyph-name="Odieresis" unicode="&#xd6;" horiz-adv-x="712" 
d="M235 900h101v-109h-101v109zM374 900h101v-109h-101v109zM690 350q0 -174 -94 -265.5t-240 -91.5t-240 91.5t-94 265.5q0 175 94 267t240 90q147 -2 240.5 -93t93.5 -264zM585 350q0 138 -63 205t-166 68q-103 2 -166 -66.5t-63 -206.5t63 -205.5t166 -67.5t166 67.5
t63 205.5z" />
    <glyph glyph-name="multiply" unicode="&#xd7;" horiz-adv-x="451" 
d="M289 285l132 -133l-63 -63l-132 133l-133 -133l-63 63l133 133l-133 132l63 63l133 -132l132 132l63 -63z" />
    <glyph glyph-name="Oslash" unicode="&#xd8;" horiz-adv-x="740" 
d="M645 571q58 -90 58 -221q0 -174 -94 -265.5t-240 -91.5q-137 0 -224 77l-80 -80l-55 55l84 83q-59 89 -59 222q0 175 94 267t240 90q137 -2 225 -79l82 82l54 -54zM140 350q0 -86 27 -148l361 360q-60 61 -159 61q-103 2 -166 -66.5t-63 -206.5zM598 350q0 85 -27 147
l-360 -361q59 -59 158 -59q103 0 166 67.5t63 205.5z" />
    <glyph glyph-name="Ugrave" unicode="&#xd9;" horiz-adv-x="624" 
d="M277 758l-77 142h92l58 -142h-73zM492 700v-408q0 -109 -49.5 -162.5t-130.5 -53.5t-130.5 53.5t-49.5 162.5v408h-102v-407q0 -146 79.5 -223.5t202.5 -77.5t202.5 77.5t79.5 223.5v407h-102z" />
    <glyph glyph-name="Uacute" unicode="&#xda;" horiz-adv-x="624" 
d="M338 897h92l-77 -142h-73zM492 700v-408q0 -109 -49.5 -162.5t-130.5 -53.5t-130.5 53.5t-49.5 162.5v408h-102v-407q0 -146 79.5 -223.5t202.5 -77.5t202.5 77.5t79.5 223.5v407h-102z" />
    <glyph glyph-name="Ucircumflex" unicode="&#xdb;" horiz-adv-x="624" 
d="M238 781h-94l127 119h81l127 -119h-94l-73 93zM594 700v-407q0 -146 -79.5 -223.5t-202.5 -77.5t-202.5 77.5t-79.5 223.5v407h102v-408q0 -109 49.5 -162.5t130.5 -53.5t130.5 53.5t49.5 162.5v408h102z" />
    <glyph glyph-name="Udieresis" unicode="&#xdc;" horiz-adv-x="624" 
d="M191 900h101v-109h-101v109zM330 900h101v-109h-101v109zM492 700v-408q0 -109 -49.5 -162.5t-130.5 -53.5t-130.5 53.5t-49.5 162.5v408h-102v-407q0 -146 79.5 -223.5t202.5 -77.5t202.5 77.5t79.5 223.5v407h-102z" />
    <glyph glyph-name="Yacute" unicode="&#xdd;" horiz-adv-x="616" 
d="M350 755h-73l58 142h92zM601 699l-242 -354v-345h-100v345l-244 354h117l177 -264l175 264h117z" />
    <glyph glyph-name="Thorn" unicode="&#xde;" horiz-adv-x="552" 
d="M274 590q121 0 188.5 -60.5t67.5 -171.5t-67.5 -171.5t-188.5 -60.5h-145v-126h-99v700h99v-110h145zM274 208q76 0 116.5 41t40.5 109t-40.5 109t-116.5 41h-145v-300h145z" />
    <glyph glyph-name="germandbls" unicode="&#xdf;" horiz-adv-x="497" 
d="M331 388q71 -9 107.5 -47t36.5 -129q0 -212 -259 -212v82q160 0 160 130t-160 130v88q66 0 101 22t35 75q0 54 -29.5 75.5t-93.5 21.5q-60 0 -80 -20t-20 -77v-527h-99v527q0 98 47 137t152 39q108 0 163.5 -40t55.5 -136q0 -66 -29.5 -97.5t-87.5 -41.5z" />
    <glyph glyph-name="agrave" unicode="&#xe0;" horiz-adv-x="490" 
d="M219 558l-77 142h92l58 -142h-73zM252 503q43 0 79 -10t67 -31.5t49 -61t18 -93.5v-307h-101v86q-29 -52 -87 -76t-114 -16t-98.5 47.5t-42.5 100.5q0 54 25.5 87.5t63.5 44.5t82 16t82 4.5t63.5 9t25.5 31.5q0 43 -33.5 64.5t-78.5 21.5q-47 0 -79 -18.5t-41 -71.5
l-90 17q12 82 70 119t140 36zM128 142q0 -57 54 -78t110 11q72 42 72 141v45q-19 -13 -62.5 -19.5t-80 -10t-65 -25.5t-28.5 -64z" />
    <glyph glyph-name="aacute" unicode="&#xe1;" horiz-adv-x="490" 
d="M295 555h-73l58 142h92zM252 503q43 0 79 -10t67 -31.5t49 -61t18 -93.5v-307h-101v86q-29 -52 -87 -76t-114 -16t-98.5 47.5t-42.5 100.5q0 54 25.5 87.5t63.5 44.5t82 16t82 4.5t63.5 9t25.5 31.5q0 43 -33.5 64.5t-78.5 21.5q-47 0 -79 -18.5t-41 -71.5l-90 17
q12 82 70 119t140 36zM128 142q0 -57 54 -78t110 11q72 42 72 141v45q-19 -13 -62.5 -19.5t-80 -10t-65 -25.5t-28.5 -64z" />
    <glyph glyph-name="acircumflex" unicode="&#xe2;" horiz-adv-x="490" 
d="M180 581h-94l127 119h81l127 -119h-94l-73 93zM252 503q43 0 79 -10t67 -31.5t49 -61t18 -93.5v-307h-101v86q-29 -52 -87 -76t-114 -16t-98.5 47.5t-42.5 100.5q0 54 25.5 87.5t63.5 44.5t82 16t82 4.5t63.5 9t25.5 31.5q0 43 -33.5 64.5t-78.5 21.5q-47 0 -79 -18.5
t-41 -71.5l-90 17q12 82 70 119t140 36zM128 142q0 -57 54 -78t110 11q72 42 72 141v45q-19 -13 -62.5 -19.5t-80 -10t-65 -25.5t-28.5 -64z" />
    <glyph glyph-name="atilde" unicode="&#xe3;" horiz-adv-x="490" 
d="M198 607q-29 1 -45.5 -14t-29.5 -43l-51 41q23 46 51.5 65t77.5 16q37 -2 71 -29t51 -28q25 -1 39 11t24 40l63 -23q-11 -35 -44.5 -65.5t-84.5 -27.5q-34 2 -66.5 29t-55.5 28zM252 503q43 0 79 -10t67 -31.5t49 -61t18 -93.5v-307h-101v86q-29 -52 -87 -76t-114 -16
t-98.5 47.5t-42.5 100.5q0 54 25.5 87.5t63.5 44.5t82 16t82 4.5t63.5 9t25.5 31.5q0 43 -33.5 64.5t-78.5 21.5q-47 0 -79 -18.5t-41 -71.5l-90 17q12 82 70 119t140 36zM128 142q0 -57 54 -78t110 11q72 42 72 141v45q-19 -13 -62.5 -19.5t-80 -10t-65 -25.5t-28.5 -64z
" />
    <glyph glyph-name="adieresis" unicode="&#xe4;" horiz-adv-x="490" 
d="M234 591h-101v109h101v-109zM373 591h-101v109h101v-109zM252 503q43 0 79 -10t67 -31.5t49 -61t18 -93.5v-307h-101v86q-29 -52 -87 -76t-114 -16t-98.5 47.5t-42.5 100.5q0 54 25.5 87.5t63.5 44.5t82 16t82 4.5t63.5 9t25.5 31.5q0 43 -33.5 64.5t-78.5 21.5
q-47 0 -79 -18.5t-41 -71.5l-90 17q12 82 70 119t140 36zM128 142q0 -57 54 -78t110 11q72 42 72 141v45q-19 -13 -62.5 -19.5t-80 -10t-65 -25.5t-28.5 -64z" />
    <glyph glyph-name="aring" unicode="&#xe5;" horiz-adv-x="490" 
d="M254 544q-38 0 -64.5 26.5t-26.5 64.5t26.5 64t64.5 26t64 -26.5t26 -63.5q0 -38 -26 -64.5t-64 -26.5zM254 672q-16 0 -27 -11t-11 -26q0 -16 11 -27t27 -11q15 0 26 11t11 27q0 15 -11 26t-26 11zM252 503q43 0 79 -10t67 -31.5t49 -61t18 -93.5v-307h-101v86
q-29 -52 -87 -76t-114 -16t-98.5 47.5t-42.5 100.5q0 54 25.5 87.5t63.5 44.5t82 16t82 4.5t63.5 9t25.5 31.5q0 43 -33.5 64.5t-78.5 21.5q-47 0 -79 -18.5t-41 -71.5l-90 17q12 82 70 119t140 36zM128 142q0 -57 54 -78t110 11q72 42 72 141v45q-19 -13 -62.5 -19.5
t-80 -10t-65 -25.5t-28.5 -64z" />
    <glyph glyph-name="ae" unicode="&#xe6;" horiz-adv-x="870" 
d="M848 250q0 -21 -3 -40h-386q9 -67 49.5 -100.5t96.5 -32.5q106 2 145 96l86 -34q-29 -70 -91 -107t-140 -38q-79 -1 -140 38t-87 114q-9 -44 -34 -77t-57 -49.5t-68.5 -23t-71 2t-63 25.5t-45.5 48t-17 70q0 54 25.5 87.5t63.5 44.5t82 16t82 4.5t63.5 9t25.5 31.5
q0 43 -33.5 64.5t-78.5 21.5q-47 0 -79 -18.5t-41 -71.5l-90 17q12 82 70 119t140 36q121 -2 166 -77q68 82 187 80q105 -1 174 -66.5t69 -189.5zM605 423q-56 1 -95.5 -32t-50.5 -98h292q-11 65 -50.5 97t-95.5 33zM128 142q0 -56 50 -79q53 -24 106 9q77 50 78 178v9
q-20 -12 -63.5 -18t-79 -9.5t-63.5 -25.5t-28 -64z" />
    <glyph glyph-name="ccedilla" unicode="&#xe7;" horiz-adv-x="512" 
d="M265 77q103 2 138 101l87 -32q-25 -65 -74 -103t-114 -46l-27 -58q48 0 83 -22.5t35 -69.5q0 -62 -48 -90t-106.5 -15t-87.5 57l45 48q29 -37 73 -38.5t45 38.5q0 17 -9.5 28t-28.5 15t-32 5t-34 1v38l32 61q-96 6 -158 72t-62 183q0 124 69.5 190.5t173.5 65.5
q78 -1 137.5 -39.5t87.5 -112.5l-87 -32q-35 99 -138 101q-65 1 -107 -42.5t-42 -130.5t42 -130.5t107 -42.5z" />
    <glyph glyph-name="egrave" unicode="&#xe8;" horiz-adv-x="530" 
d="M231 558l-77 142h92l58 -142h-73zM508 250q0 -21 -3 -40h-386q9 -67 49.5 -100.5t96.5 -32.5q106 2 145 96l86 -34q-29 -70 -91 -107t-140 -38q-104 -1 -173.5 65.5t-69.5 190.5t69.5 190.5t173.5 65.5q105 -1 174 -66.5t69 -189.5zM265 423q-56 1 -95.5 -32t-50.5 -98
h292q-11 65 -50.5 97t-95.5 33z" />
    <glyph glyph-name="eacute" unicode="&#xe9;" horiz-adv-x="530" 
d="M307 555h-73l58 142h92zM508 250q0 -21 -3 -40h-386q9 -67 49.5 -100.5t96.5 -32.5q106 2 145 96l86 -34q-29 -70 -91 -107t-140 -38q-104 -1 -173.5 65.5t-69.5 190.5t69.5 190.5t173.5 65.5q105 -1 174 -66.5t69 -189.5zM265 423q-56 1 -95.5 -32t-50.5 -98h292
q-11 65 -50.5 97t-95.5 33z" />
    <glyph glyph-name="ecircumflex" unicode="&#xea;" horiz-adv-x="530" 
d="M192 581h-94l127 119h81l127 -119h-94l-73 93zM508 250q0 -21 -3 -40h-386q9 -67 49.5 -100.5t96.5 -32.5q106 2 145 96l86 -34q-29 -70 -91 -107t-140 -38q-104 -1 -173.5 65.5t-69.5 190.5t69.5 190.5t173.5 65.5q105 -1 174 -66.5t69 -189.5zM265 423q-56 1 -95.5 -32
t-50.5 -98h292q-11 65 -50.5 97t-95.5 33z" />
    <glyph glyph-name="edieresis" unicode="&#xeb;" horiz-adv-x="530" 
d="M246 591h-101v109h101v-109zM385 591h-101v109h101v-109zM508 250q0 -21 -3 -40h-386q9 -67 49.5 -100.5t96.5 -32.5q106 2 145 96l86 -34q-29 -70 -91 -107t-140 -38q-104 -1 -173.5 65.5t-69.5 190.5t69.5 190.5t173.5 65.5q105 -1 174 -66.5t69 -189.5zM265 423
q-56 1 -95.5 -32t-50.5 -98h292q-11 65 -50.5 97t-95.5 33z" />
    <glyph glyph-name="igrave" unicode="&#xec;" horiz-adv-x="159" 
d="M55 558l-77 142h92l58 -142h-73zM129 0v500h-99v-500h99z" />
    <glyph glyph-name="iacute" unicode="&#xed;" horiz-adv-x="159" 
d="M104 697h92l-77 -142h-73zM129 0v500h-99v-500h99z" />
    <glyph glyph-name="icircumflex" unicode="&#xee;" horiz-adv-x="195" 
d="M285 581h-94l-73 93l-74 -93h-94l127 119h81zM49 500h99v-500h-99v500z" />
    <glyph glyph-name="idieresis" unicode="&#xef;" horiz-adv-x="150" 
d="M-65 700h101v-109h-101v109zM74 700h101v-109h-101v109zM124 0v500h-99v-500h99z" />
    <glyph glyph-name="eth" unicode="&#xf0;" horiz-adv-x="517" 
d="M457 535q38 -96 38 -222q0 -158 -63.5 -237.5t-173.5 -79.5q-101 0 -168.5 56t-67.5 170q0 72 31.5 125t79.5 74.5t100.5 22.5t100.5 -28.5t73 -80.5q-4 101 -32 173l-100 -32l-20 52l94 31q-48 74 -116 74q-45 0 -73 -20l-49 58q54 34 122 34q127 0 199 -119l34 11
l18 -53zM258 75q60 0 101.5 37.5t41.5 109.5t-42.5 110t-100.5 37q-59 -1 -101 -38t-42 -109t41.5 -109.5t101.5 -37.5z" />
    <glyph glyph-name="ntilde" unicode="&#xf1;" horiz-adv-x="476" 
d="M186 607q-29 1 -45.5 -14t-29.5 -43l-51 41q23 46 51.5 65t77.5 16q37 -2 71 -29t51 -28q25 -1 39 11t24 40l63 -23q-11 -35 -44.5 -65.5t-84.5 -27.5q-34 2 -66.5 29t-55.5 28zM314 508q29 0 51.5 -8t37.5 -19.5t25 -32.5t15 -37t7.5 -43.5t3 -42.5t0.5 -43v-282h-100
v282q0 143 -77 143q-18 0 -32.5 -2.5t-37.5 -16t-38.5 -36.5t-27.5 -70.5t-12 -112.5v-187h-99v500h99v-121q29 65 77.5 97t107.5 32z" />
    <glyph glyph-name="ograve" unicode="&#xf2;" horiz-adv-x="536" 
d="M233 558l-77 142h92l58 -142h-73zM514 250q0 -124 -70.5 -190t-175.5 -66t-175.5 66t-70.5 190t70.5 190.5t175.5 65.5q106 -1 176 -67t70 -189zM419 250q0 86 -42.5 129t-108.5 44q-65 1 -108 -42.5t-43 -130.5t42.5 -130t108.5 -43t108.5 43t42.5 130z" />
    <glyph glyph-name="oacute" unicode="&#xf3;" horiz-adv-x="536" 
d="M294 697h92l-77 -142h-73zM514 250q0 -124 -70.5 -190t-175.5 -66t-175.5 66t-70.5 190t70.5 190.5t175.5 65.5q106 -1 176 -67t70 -189zM419 250q0 86 -42.5 129t-108.5 44q-65 1 -108 -42.5t-43 -130.5t42.5 -130t108.5 -43t108.5 43t42.5 130z" />
    <glyph glyph-name="ocircumflex" unicode="&#xf4;" horiz-adv-x="536" 
d="M194 581h-94l127 119h81l127 -119h-94l-73 93zM268 506q106 -1 176 -67t70 -189q0 -124 -70.5 -190t-175.5 -66t-175.5 66t-70.5 190t70.5 190.5t175.5 65.5zM268 77q66 0 108.5 43t42.5 130q0 86 -42.5 129t-108.5 44q-65 1 -108 -42.5t-43 -130.5t42.5 -130t108.5 -43z
" />
    <glyph glyph-name="otilde" unicode="&#xf5;" horiz-adv-x="536" 
d="M86 591q23 46 51.5 65t77.5 16q37 -2 71 -29t51 -28q25 -1 39 11t24 40l63 -23q-11 -35 -44.5 -65.5t-84.5 -27.5q-34 2 -66.5 29t-55.5 28q-29 1 -45.5 -14t-29.5 -43zM514 250q0 -124 -70.5 -190t-175.5 -66t-175.5 66t-70.5 190t70.5 190.5t175.5 65.5q106 -1 176 -67
t70 -189zM419 250q0 86 -42.5 129t-108.5 44q-65 1 -108 -42.5t-43 -130.5t42.5 -130t108.5 -43t108.5 43t42.5 130z" />
    <glyph glyph-name="odieresis" unicode="&#xf6;" horiz-adv-x="536" 
d="M147 700h101v-109h-101v109zM286 700h101v-109h-101v109zM514 250q0 -124 -70.5 -190t-175.5 -66t-175.5 66t-70.5 190t70.5 190.5t175.5 65.5q106 -1 176 -67t70 -189zM419 250q0 86 -42.5 129t-108.5 44q-65 1 -108 -42.5t-43 -130.5t42.5 -130t108.5 -43t108.5 43
t42.5 130z" />
    <glyph glyph-name="divide" unicode="&#xf7;" horiz-adv-x="523" 
d="M308 419h-93v93h93v-93zM493 329v-89h-463v89h463zM308 57h-93v93h93v-93z" />
    <glyph glyph-name="oslash" unicode="&#xf8;" horiz-adv-x="560" 
d="M484 398q38 -60 38 -148q0 -124 -70.5 -190t-175.5 -66q-89 0 -151 46l-60 -60l-55 55l61 61q-41 62 -41 154q0 124 70.5 190.5t175.5 65.5q91 0 156 -50l63 63l55 -55zM125 250q0 -50 15 -85l229 228q-39 30 -93 30q-65 1 -108 -42.5t-43 -130.5zM427 250q0 46 -12 79
l-227 -226q36 -26 88 -26q66 0 108.5 43t42.5 130z" />
    <glyph glyph-name="ugrave" unicode="&#xf9;" horiz-adv-x="481" 
d="M205 558l-77 142h92l58 -142h-73zM451 500v-500h-100v111q-53 -119 -179 -119q-34 0 -59 9.5t-40 29t-24.5 38.5t-13 49.5t-4.5 49.5t-1 50v282h100v-282q0 -143 79 -143q12 0 22.5 2t28.5 8.5t32.5 22.5t28.5 40.5t22 67t8 97.5v187h100z" />
    <glyph glyph-name="uacute" unicode="&#xfa;" horiz-adv-x="481" 
d="M281 555h-73l58 142h92zM451 500v-500h-100v111q-53 -119 -179 -119q-34 0 -59 9.5t-40 29t-24.5 38.5t-13 49.5t-4.5 49.5t-1 50v282h100v-282q0 -143 79 -143q12 0 22.5 2t28.5 8.5t32.5 22.5t28.5 40.5t22 67t8 97.5v187h100z" />
    <glyph glyph-name="ucircumflex" unicode="&#xfb;" horiz-adv-x="481" 
d="M166 581h-94l127 119h81l127 -119h-94l-73 93zM451 500v-500h-100v111q-53 -119 -179 -119q-34 0 -59 9.5t-40 29t-24.5 38.5t-13 49.5t-4.5 49.5t-1 50v282h100v-282q0 -143 79 -143q12 0 22.5 2t28.5 8.5t32.5 22.5t28.5 40.5t22 67t8 97.5v187h100z" />
    <glyph glyph-name="udieresis" unicode="&#xfc;" horiz-adv-x="481" 
d="M220 591h-101v109h101v-109zM359 591h-101v109h101v-109zM451 500v-500h-100v111q-53 -119 -179 -119q-34 0 -59 9.5t-40 29t-24.5 38.5t-13 49.5t-4.5 49.5t-1 50v282h100v-282q0 -143 79 -143q12 0 22.5 2t28.5 8.5t32.5 22.5t28.5 40.5t22 67t8 97.5v187h100z" />
    <glyph glyph-name="yacute" unicode="&#xfd;" horiz-adv-x="497" 
d="M289 555h-73l58 142h92zM482 500l-214 -571q-31 -92 -64 -118t-102 -26h-27v87h27q35 0 48 10.5t27 46.5l25 72l-187 499h109l124 -366l125 366h109z" />
    <glyph glyph-name="thorn" unicode="&#xfe;" horiz-adv-x="546" 
d="M306 506q102 -1 160 -65.5t58 -190.5q0 -127 -58 -191.5t-160 -64.5q-124 0 -176 92v-286h-98l-2 900h100v-286q53 94 176 92zM280 72q68 0 107 46t39 132t-39 131.5t-107 46.5q-66 1 -108 -41.5t-42 -136.5t41.5 -136t108.5 -42z" />
    <glyph glyph-name="ydieresis" unicode="&#xff;" horiz-adv-x="497" 
d="M228 591h-101v109h101v-109zM367 591h-101v109h101v-109zM482 500l-214 -571q-31 -92 -64 -118t-102 -26h-27v87h27q35 0 48 10.5t27 46.5l25 72l-187 499h109l124 -366l125 366h109z" />
    <glyph glyph-name="Amacron" unicode="&#x100;" horiz-adv-x="671" 
d="M473 769h-275v71h275v-71zM472 191h-273l-68 -191h-109l264 700h99l264 -700h-109zM442 275l-106 296l-106 -296h212z" />
    <glyph glyph-name="amacron" unicode="&#x101;" horiz-adv-x="490" 
d="M393 569h-275v71h275v-71zM252 503q43 0 79 -10t67 -31.5t49 -61t18 -93.5v-307h-101v86q-29 -52 -87 -76t-114 -16t-98.5 47.5t-42.5 100.5q0 54 25.5 87.5t63.5 44.5t82 16t82 4.5t63.5 9t25.5 31.5q0 43 -33.5 64.5t-78.5 21.5q-47 0 -79 -18.5t-41 -71.5l-90 17
q12 82 70 119t140 36zM128 142q0 -57 54 -78t110 11q72 42 72 141v45q-19 -13 -62.5 -19.5t-80 -10t-65 -25.5t-28.5 -64z" />
    <glyph glyph-name="Abreve" unicode="&#x102;" horiz-adv-x="671" 
d="M334 743q-66 0 -109.5 44.5t-43.5 111.5h72q0 -40 21.5 -64.5t59.5 -24.5t59.5 24.5t21.5 64.5h72q0 -67 -43.5 -111.5t-109.5 -44.5zM472 191h-273l-68 -191h-109l264 700h99l264 -700h-109zM442 275l-106 296l-106 -296h212z" />
    <glyph glyph-name="abreve" unicode="&#x103;" horiz-adv-x="490" 
d="M254 543q-66 0 -109.5 44.5t-43.5 111.5h72q0 -40 21.5 -64.5t59.5 -24.5t59.5 24.5t21.5 64.5h72q0 -67 -43.5 -111.5t-109.5 -44.5zM252 503q43 0 79 -10t67 -31.5t49 -61t18 -93.5v-307h-101v86q-29 -52 -87 -76t-114 -16t-98.5 47.5t-42.5 100.5q0 54 25.5 87.5
t63.5 44.5t82 16t82 4.5t63.5 9t25.5 31.5q0 43 -33.5 64.5t-78.5 21.5q-47 0 -79 -18.5t-41 -71.5l-90 17q12 82 70 119t140 36zM128 142q0 -57 54 -78t110 11q72 42 72 141v45q-19 -13 -62.5 -19.5t-80 -10t-65 -25.5t-28.5 -64z" />
    <glyph glyph-name="Aogonek" unicode="&#x104;" horiz-adv-x="600" 
d="M199 191l-67 -187h8q-18 -18 -35 -70q-30 -91 24 -97q18 -2 45 6l41 -69q-35 -29 -101 -20.5t-89.5 63.5t59.5 183h-62l264 700h99l264 -700h-109l-68 191h-273zM230 275h212l-106 296z" />
    <glyph glyph-name="aogonek" unicode="&#x105;" horiz-adv-x="490" 
d="M497 -222q-35 -29 -100.5 -20.5t-89.5 62.5t57 181v85q-29 -52 -87 -76t-114 -16t-98.5 47.5t-42.5 100.5q0 54 25.5 87.5t63.5 44.5t82 16t82 4.5t63.5 9t25.5 31.5q0 43 -33.5 64.5t-78.5 21.5q-47 0 -79 -18.5t-41 -71.5l-90 17q12 82 70 119t140 36q43 0 79 -10
t67 -31.5t49 -61t18 -93.5v-307h-49q-12 -19 -23 -47t-16 -59t14.5 -46t64.5 -1zM128 142q0 -57 54 -78t110 11q72 42 72 141v45q-19 -13 -62.5 -19.5t-80 -10t-65 -25.5t-28.5 -64z" />
    <glyph glyph-name="Cacute" unicode="&#x106;" horiz-adv-x="683" 
d="M366 900h92l-77 -142h-73zM127 350q0 139 58.5 206.5t160.5 66.5q180 -2 220 -181l95 19q-27 120 -111.5 182t-203.5 64q-144 2 -234 -89.5t-90 -267.5t90 -267.5t234 -89.5q119 2 203.5 64t111.5 182l-95 19q-40 -179 -220 -181q-102 -1 -160.5 66.5t-58.5 206.5z" />
    <glyph glyph-name="cacute" unicode="&#x107;" horiz-adv-x="512" 
d="M285 700h92l-77 -142h-73zM22 250q0 -124 69.5 -190.5t173.5 -65.5q78 1 137.5 39.5t87.5 112.5l-87 32q-35 -99 -138 -101q-65 -1 -107 42.5t-42 130.5t42 130.5t107 42.5q103 -2 138 -101l87 32q-28 74 -87.5 112.5t-137.5 39.5q-104 1 -173.5 -65.5t-69.5 -190.5z" />
    <glyph glyph-name="Ccaron" unicode="&#x10c;" horiz-adv-x="683" 
d="M180 890h94l74 -93l73 93h94l-127 -119h-81zM346 77q180 2 220 181l95 -19q-27 -120 -111.5 -182t-203.5 -64q-144 -2 -234 89.5t-90 267.5t90 267.5t234 89.5q119 -2 203.5 -64t111.5 -182l-95 -19q-40 179 -220 181q-102 1 -160.5 -66.5t-58.5 -206.5t58.5 -206.5
t160.5 -66.5z" />
    <glyph glyph-name="ccaron" unicode="&#x10d;" horiz-adv-x="512" 
d="M99 690h94l74 -93l73 93h94l-127 -119h-81zM265 77q103 2 138 101l87 -32q-28 -74 -87.5 -112.5t-137.5 -39.5q-104 -1 -173.5 65.5t-69.5 190.5t69.5 190.5t173.5 65.5q78 -1 137.5 -39.5t87.5 -112.5l-87 -32q-35 99 -138 101q-65 1 -107 -42.5t-42 -130.5t42 -130.5
t107 -42.5z" />
    <glyph glyph-name="Dcaron" unicode="&#x10e;" horiz-adv-x="645" 
d="M141 890h94l74 -93l73 93h94l-127 -119h-81zM267 700q100 0 179 -37t128 -117.5t49 -195.5t-49 -195.5t-128 -117.5t-179 -37h-237v700h237zM267 83q112 0 182.5 66.5t70.5 200.5q0 135 -70.5 201t-182.5 66h-138v-534h138z" />
    <glyph glyph-name="dcaron" unicode="&#x10f;" horiz-adv-x="546" 
d="M298 846h94l74 -93l73 93h94l-127 -119h-81zM416 700h100v-700h-100v86q-52 -92 -176 -92q-102 0 -160 64.5t-58 191.5q0 126 58 190.5t160 65.5q123 2 176 -92v286zM266 72q67 0 108.5 42t41.5 136t-42 136.5t-108 41.5q-68 -1 -107 -46.5t-39 -131.5t39 -132t107 -46z
" />
    <glyph glyph-name="Dcroat" unicode="&#x110;" horiz-adv-x="690" 
d="M312 700q100 0 179 -37t128 -117.5t49 -195.5t-49 -195.5t-128 -117.5t-179 -37h-237v313h-65v78h65v309h237zM312 83q112 0 182.5 66.5t70.5 200.5q0 135 -70.5 201t-182.5 66h-138v-226h75v-78h-75v-230h138z" />
    <glyph glyph-name="dcroat" unicode="&#x111;" horiz-adv-x="548" 
d="M516 700v-700h-100v86q-52 -92 -176 -92q-102 0 -160 64.5t-58 191.5q0 126 58 190.5t160 65.5q123 2 176 -92v156h-179v73h179v57h100zM266 72q67 0 108.5 42t41.5 136t-42 136.5t-108 41.5q-68 -1 -107 -46.5t-39 -131.5t39 -132t107 -46z" />
    <glyph glyph-name="Emacron" unicode="&#x112;" horiz-adv-x="512" 
d="M392 769h-275v71h275v-71zM129 611v-216h306v-89h-306v-217h361v-89h-460v700h460v-89h-361z" />
    <glyph glyph-name="emacron" unicode="&#x113;" horiz-adv-x="530" 
d="M405 569h-275v71h275v-71zM508 250q0 -21 -3 -40h-386q9 -67 49.5 -100.5t96.5 -32.5q106 2 145 96l86 -34q-29 -70 -91 -107t-140 -38q-104 -1 -173.5 65.5t-69.5 190.5t69.5 190.5t173.5 65.5q105 -1 174 -66.5t69 -189.5zM265 423q-56 1 -95.5 -32t-50.5 -98h292
q-11 65 -50.5 97t-95.5 33z" />
    <glyph glyph-name="Edotaccent" unicode="&#x116;" horiz-adv-x="512" 
d="M303 791h-101v109h101v-109zM129 611v-216h306v-89h-306v-217h361v-89h-460v700h460v-89h-361z" />
    <glyph glyph-name="edotaccent" unicode="&#x117;" horiz-adv-x="530" 
d="M316 591h-101v109h101v-109zM508 250q0 -21 -3 -40h-386q9 -67 49.5 -100.5t96.5 -32.5q106 2 145 96l86 -34q-29 -70 -91 -107t-140 -38q-104 -1 -173.5 65.5t-69.5 190.5t69.5 190.5t173.5 65.5q105 -1 174 -66.5t69 -189.5zM265 423q-56 1 -95.5 -32t-50.5 -98h292
q-11 65 -50.5 97t-95.5 33z" />
    <glyph glyph-name="Eogonek" unicode="&#x118;" horiz-adv-x="600" 
d="M129 611v-216h306v-89h-306v-217h361v-89h-353q-25 -33 -38 -86q-19 -79 40 -77q15 0 35 6l41 -69q-35 -29 -101 -20.5t-89.5 63.5t59.5 183h-54v700h460v-89h-361z" />
    <glyph glyph-name="eogonek" unicode="&#x119;" horiz-adv-x="530" 
d="M508 250q0 -21 -3 -40h-386q9 -67 49.5 -100.5t96.5 -32.5q106 2 145 96l86 -34q-29 -70 -91 -107t-140 -38q-7 -16 -12 -31.5t-8.5 -33t-1 -30t10.5 -23t25 -11t43 6.5l41 -69q-12 -10 -34 -16t-46 -5.5t-48 7t-40.5 23t-24 40.5t2.5 62t39 84q-85 16 -137.5 80.5
t-52.5 171.5q0 124 69.5 190.5t173.5 65.5q105 -1 174 -66.5t69 -189.5zM265 423q-56 1 -95.5 -32t-50.5 -98h292q-11 65 -50.5 97t-95.5 33z" />
    <glyph glyph-name="Ecaron" unicode="&#x11a;" horiz-adv-x="512" 
d="M87 890h94l74 -93l73 93h94l-127 -119h-81zM129 611v-216h306v-89h-306v-217h361v-89h-460v700h460v-89h-361z" />
    <glyph glyph-name="ecaron" unicode="&#x11b;" horiz-adv-x="530" 
d="M100 690h94l74 -93l73 93h94l-127 -119h-81zM508 250q0 -21 -3 -40h-386q9 -67 49.5 -100.5t96.5 -32.5q106 2 145 96l86 -34q-29 -70 -91 -107t-140 -38q-104 -1 -173.5 65.5t-69.5 190.5t69.5 190.5t173.5 65.5q105 -1 174 -66.5t69 -189.5zM265 423q-56 1 -95.5 -32
t-50.5 -98h292q-11 65 -50.5 97t-95.5 33z" />
    <glyph glyph-name="uni0122" unicode="&#x122;" horiz-adv-x="700" 
d="M670 0h-86v153q-59 -160 -238 -160q-145 0 -234.5 91t-89.5 266q0 176 90 267.5t234 89.5q119 -2 203.5 -64t111.5 -182l-95 -19q-40 179 -220 181q-102 1 -160.5 -66.5t-58.5 -206.5t58.5 -206t160.5 -67q89 0 152.5 50.5t80.5 152.5h-157l10 85h238v-365zM315 -50
l81 -1l-61 -125h-60z" />
    <glyph glyph-name="uni0123" unicode="&#x123;" horiz-adv-x="546" 
d="M287 555h-73l58 142h92zM516 500v-493q0 -124 -73.5 -190.5t-184.5 -65.5q-78 1 -137.5 39.5t-87.5 112.5l87 32q35 -99 138 -101q70 -1 114 42.5t44 130.5v79q-52 -92 -176 -92q-102 0 -160 64.5t-58 191.5q0 126 58 190.5t160 65.5q123 2 176 -92v86h100zM266 72
q67 0 108.5 42t41.5 136t-42 136.5t-108 41.5q-68 -1 -107 -46.5t-39 -131.5t39 -132t107 -46z" />
    <glyph glyph-name="Imacron" unicode="&#x12a;" horiz-adv-x="159" 
d="M217 840v-71h-275v71h275zM129 0v700h-99v-700h99z" />
    <glyph glyph-name="imacron" unicode="&#x12b;" horiz-adv-x="175" 
d="M225 680v-71h-275v71h275zM137 0v500h-99v-500h99z" />
    <glyph glyph-name="Iogonek" unicode="&#x12e;" horiz-adv-x="159" 
d="M157 -226q-35 -29 -101.5 -20t-89.5 64.5t63 185.5h1v696h99v-700h-50q-25 -33 -38 -86q-19 -79 40 -77q15 0 35 6z" />
    <glyph glyph-name="iogonek" unicode="&#x12f;" horiz-adv-x="163" 
d="M133 589h-103v111h103v-111zM162 -226q-35 -29 -101 -20.5t-89.5 63.5t60.5 184v499h99v-500h-47q-25 -33 -38 -86q-19 -79 40 -77q15 0 35 6z" />
    <glyph glyph-name="uni0136" unicode="&#x136;" horiz-adv-x="600" 
d="M568 0h-114l-228 316l-97 -120v-196h-99v700h99v-366l290 366h114l-249 -310zM266 -34l81 -1l-61 -125h-60z" />
    <glyph glyph-name="uni0137" unicode="&#x137;" horiz-adv-x="493" 
d="M253 286l219 -285h-113l-169 219l-60 -63v-157h-100v700h100v-422l207 222h120zM473 0l-1 1h1v-1zM207 -34l81 -1l-61 -125h-50z" />
    <glyph glyph-name="Lacute" unicode="&#x139;" horiz-adv-x="475" 
d="M118 758h-73l58 142h92zM460 86v-86h-430v700h99v-614h331z" />
    <glyph glyph-name="lacute" unicode="&#x13a;" horiz-adv-x="169" 
d="M103 900h92l-77 -142h-73zM134 0v700h-99v-700h99z" />
    <glyph glyph-name="uni013B" unicode="&#x13b;" horiz-adv-x="485" 
d="M460 86v-86h-430v700h99v-614h331zM210 -34l81 -1l-61 -125h-60z" />
    <glyph glyph-name="uni013C" unicode="&#x13c;" horiz-adv-x="159" 
d="M129 0v700h-99v-700h99zM124 -35l-61 -125h-60l40 126z" />
    <glyph glyph-name="Lcaron" unicode="&#x13d;" horiz-adv-x="475" 
d="M-83 890h94l74 -93l73 93h94l-127 -119h-81zM460 86v-86h-430v700h99v-614h331z" />
    <glyph glyph-name="lcaron" unicode="&#x13e;" horiz-adv-x="169" 
d="M-83 890h94l74 -93l73 93h94l-127 -119h-81zM35 700h99v-700h-99v700z" />
    <glyph glyph-name="Lslash" unicode="&#x141;" horiz-adv-x="475" 
d="M460 86v-86h-430v305l-101 -36l-20 58l121 43v330h99v-295l108 38l20 -58l-128 -45v-254h331z" />
    <glyph glyph-name="lslash" unicode="&#x142;" horiz-adv-x="169" 
d="M134 342v-342h-99v306l-106 -37l-20 58l126 45v328h99v-293l103 36l20 -58z" />
    <glyph glyph-name="Nacute" unicode="&#x143;" horiz-adv-x="613" 
d="M347 758h-73l58 142h92zM583 700v-700h-99l-355 550v-550h-99v700h99l355 -553v553h99z" />
    <glyph glyph-name="nacute" unicode="&#x144;" horiz-adv-x="476" 
d="M277 558h-73l58 142h92zM314 508q29 0 51.5 -8t37.5 -19.5t25 -32.5t15 -37t7.5 -43.5t3 -42.5t0.5 -43v-282h-100v282q0 143 -77 143q-18 0 -32.5 -2.5t-37.5 -16t-38.5 -36.5t-27.5 -70.5t-12 -112.5v-187h-99v500h99v-121q29 65 77.5 97t107.5 32z" />
    <glyph glyph-name="uni0145" unicode="&#x145;" horiz-adv-x="613" 
d="M583 700v-700h-99l-355 550v-550h-99v700h99l355 -553v553h99zM305 -192h-73l58 142h92z" />
    <glyph glyph-name="uni0146" unicode="&#x146;" horiz-adv-x="486" 
d="M314 508q29 0 51.5 -8t37.5 -19.5t25 -32.5t15 -37t7.5 -43.5t3 -42.5t0.5 -43v-282h-100v282q0 143 -77 143q-18 0 -32.5 -2.5t-37.5 -16t-38.5 -36.5t-27.5 -70.5t-12 -112.5v-187h-99v500h99v-121q29 65 77.5 97t107.5 32zM216 -34l81 -1l-61 -125h-60z" />
    <glyph glyph-name="Ncaron" unicode="&#x147;" horiz-adv-x="613" 
d="M146 890h94l74 -93l73 93h94l-127 -119h-81zM583 700v-700h-99l-355 550v-550h-99v700h99l355 -553v553h99z" />
    <glyph glyph-name="ncaron" unicode="&#x148;" horiz-adv-x="476" 
d="M76 690h94l74 -93l73 93h94l-127 -119h-81zM314 508q29 0 51.5 -8t37.5 -19.5t25 -32.5t15 -37t7.5 -43.5t3 -42.5t0.5 -43v-282h-100v282q0 143 -77 143q-18 0 -32.5 -2.5t-37.5 -16t-38.5 -36.5t-27.5 -70.5t-12 -112.5v-187h-99v500h99v-121q29 65 77.5 97t107.5 32z
" />
    <glyph glyph-name="Eng" unicode="&#x14a;" horiz-adv-x="613" 
d="M583 700v-700q0 -79 -33.5 -119.5t-117.5 -40.5h-22v88h22q29 0 40.5 16.5t11.5 55.5l-355 550v-550h-99v700h99l355 -553v553h99z" />
    <glyph glyph-name="eng" unicode="&#x14b;" horiz-adv-x="486" 
d="M320 508q40 0 68 -15.5t42 -35.5t21.5 -56t8.5 -58.5t1 -60.5v-282q0 -79 -33.5 -119.5t-117.5 -40.5h-22v88h22q29 0 40 16.5t11 55.5v282q0 143 -78 143q-153 0 -153 -238v-187h-99v500h99v-125q30 67 80 100t110 33z" />
    <glyph glyph-name="Omacron" unicode="&#x14c;" horiz-adv-x="712" 
d="M495 840v-71h-275v71h275zM690 350q0 -174 -94 -265.5t-240 -91.5t-240 91.5t-94 265.5q0 175 94 267t240 90q147 -2 240.5 -93t93.5 -264zM585 350q0 138 -63 205t-166 68q-103 2 -166 -66.5t-63 -206.5t63 -205.5t166 -67.5t166 67.5t63 205.5z" />
    <glyph glyph-name="omacron" unicode="&#x14d;" horiz-adv-x="536" 
d="M407 640v-71h-275v71h275zM514 250q0 -124 -70.5 -190t-175.5 -66t-175.5 66t-70.5 190t70.5 190.5t175.5 65.5q106 -1 176 -67t70 -189zM419 250q0 86 -42.5 129t-108.5 44q-65 1 -108 -42.5t-43 -130.5t42.5 -130t108.5 -43t108.5 43t42.5 130z" />
    <glyph glyph-name="Ohungarumlaut" unicode="&#x150;" horiz-adv-x="712" 
d="M321 900h92l-97 -142h-53zM451 900h92l-97 -142h-53zM690 350q0 -174 -94 -265.5t-240 -91.5t-240 91.5t-94 265.5q0 175 94 267t240 90q147 -2 240.5 -93t93.5 -264zM585 350q0 138 -63 205t-166 68q-103 2 -166 -66.5t-63 -206.5t63 -205.5t166 -67.5t166 67.5
t63 205.5z" />
    <glyph glyph-name="ohungarumlaut" unicode="&#x151;" horiz-adv-x="536" 
d="M233 700h92l-97 -142h-53zM363 700h92l-97 -142h-53zM514 250q0 -124 -70.5 -190t-175.5 -66t-175.5 66t-70.5 190t70.5 190.5t175.5 65.5q106 -1 176 -67t70 -189zM419 250q0 86 -42.5 129t-108.5 44q-65 1 -108 -42.5t-43 -130.5t42.5 -130t108.5 -43t108.5 43
t42.5 130z" />
    <glyph glyph-name="OE" unicode="&#x152;" horiz-adv-x="1081" 
d="M690 611v-216h306v-89h-306v-217h361v-89h-460v91q-83 -98 -235 -98q-146 0 -240 91.5t-94 265.5q0 175 94 267t240 90q152 -2 235 -99v92h460v-89h-361zM356 77q103 0 166 67.5t63 205.5t-63 205t-166 68q-103 2 -166 -66.5t-63 -206.5t63 -205.5t166 -67.5z" />
    <glyph glyph-name="oe" unicode="&#x153;" horiz-adv-x="928" 
d="M906 250q0 -21 -3 -40h-386q9 -67 49.5 -100.5t96.5 -32.5q106 2 145 96l86 -34q-29 -70 -91 -107t-140 -38q-135 -2 -196 103q-63 -103 -199 -103q-105 0 -175.5 66t-70.5 190t70.5 190.5t175.5 65.5q137 -2 199 -103q61 105 196 103q105 -1 174 -66.5t69 -189.5z
M268 77q66 0 109 43.5t43 129.5t-43 129t-109 44q-65 1 -108 -42.5t-43 -130.5t42.5 -130t108.5 -43zM663 423q-56 1 -95.5 -32t-50.5 -98h292q-11 65 -50.5 97t-95.5 33z" />
    <glyph glyph-name="Racute" unicode="&#x154;" horiz-adv-x="570" 
d="M302 758h-73l58 142h92zM436 0l-128 237q-8 -1 -24 -1h-155v-236h-99v700h254q121 0 188.5 -60.5t67.5 -171.5q0 -163 -138 -213l146 -255h-112zM129 318h155q76 0 116.5 41t40.5 109t-40.5 109t-116.5 41h-155v-300z" />
    <glyph glyph-name="racute" unicode="&#x155;" horiz-adv-x="321" 
d="M93 558h-73l58 142h92zM301 508v-88q-90 0 -130.5 -50.5t-40.5 -182.5v-187h-100v500h100v-92q46 100 169 100h2z" />
    <glyph glyph-name="uni0156" unicode="&#x156;" horiz-adv-x="570" 
d="M548 0h-112l-128 237q-8 -1 -24 -1h-155v-236h-99v700h254q121 0 188.5 -60.5t67.5 -171.5q0 -163 -138 -213zM129 318h155q76 0 116.5 41t40.5 109t-40.5 109t-116.5 41h-155v-300zM246 -34l81 -1l-61 -125h-60z" />
    <glyph glyph-name="uni0157" unicode="&#x157;" horiz-adv-x="326" 
d="M301 508v-88q-90 0 -130.5 -50.5t-40.5 -182.5v-187h-100v500h100v-92q46 100 169 100h2zM41 -34l81 -1l-61 -125h-60z" />
    <glyph glyph-name="Rcaron" unicode="&#x158;" horiz-adv-x="570" 
d="M101 890h94l74 -93l73 93h94l-127 -119h-81zM436 0l-128 237q-8 -1 -24 -1h-155v-236h-99v700h254q121 0 188.5 -60.5t67.5 -171.5q0 -163 -138 -213l146 -255h-112zM129 318h155q76 0 116.5 41t40.5 109t-40.5 109t-116.5 41h-155v-300z" />
    <glyph glyph-name="rcaron" unicode="&#x159;" horiz-adv-x="600" 
d="M10 690h94l74 -93l73 93h94l-127 -119h-81zM130 408q46 100 169 100h2v-88q-90 0 -130.5 -50.5t-40.5 -182.5v-187h-100v500h100v-92z" />
    <glyph glyph-name="Sacute" unicode="&#x15a;" horiz-adv-x="566" 
d="M301 900h92l-77 -142h-73zM22 185q4 -36 17.5 -67t42 -60.5t80 -46t122.5 -16.5q74 0 128 20.5t81 54.5t39 69t12 73q0 62 -22.5 103t-58.5 58.5t-79.5 27t-86.5 13.5t-79 11.5t-58.5 28t-22.5 56.5q0 63 42 92.5t102 29.5q54 0 93.5 -27t45.5 -81l93 17
q-12 77 -75.5 122t-156.5 47q-109 2 -176.5 -53t-67.5 -147q0 -58 22.5 -95.5t58.5 -53.5t79 -24.5t86.5 -13.5t79.5 -14t58.5 -33t22.5 -64q0 -71 -46.5 -102t-113.5 -31q-64 0 -112 29.5t-54 92.5z" />
    <glyph glyph-name="sacute" unicode="&#x15b;" horiz-adv-x="465" 
d="M251 700h92l-77 -142h-73zM21 135q6 -45 31.5 -76t62 -43.5t63.5 -17t53 -4.5q22 0 44 2.5t54 12.5t55.5 26.5t41 49t17.5 75.5q0 50 -23.5 80.5t-58.5 39.5t-75.5 14t-75.5 6.5t-58.5 14.5t-23.5 40q0 78 103 78q94 0 110 -70l90 26q-23 118 -200 118q-29 0 -55.5 -4
t-63.5 -17.5t-59.5 -47t-22.5 -83.5q0 -49 23.5 -79.5t58.5 -40t75.5 -15t75.5 -7t58.5 -14.5t23.5 -39q0 -42 -33 -64t-81 -22q-44 0 -76.5 21t-38.5 60z" />
    <glyph glyph-name="Scedilla" unicode="&#x15e;" horiz-adv-x="566" 
d="M544 212q0 -36 -10.5 -69t-34 -65.5t-69.5 -54.5t-109 -27l-27 -57q48 0 83 -22.5t35 -69.5q0 -62 -48 -90t-106.5 -15t-87.5 57l45 48q29 -37 73 -38.5t45 38.5q0 17 -9.5 28t-28.5 15t-32 5t-34 1v38l32 61q-64 3 -111 20.5t-73 46t-38.5 58.5t-16.5 65l96 16
q6 -63 54 -92.5t112 -29.5q67 0 113.5 31t46.5 102q0 40 -22.5 64t-58.5 33t-79.5 14t-86.5 13.5t-79 24.5t-58.5 53.5t-22.5 95.5q0 92 67.5 147t176.5 53q93 -2 156.5 -47t75.5 -122l-93 -17q-6 54 -45.5 81t-93.5 27q-60 0 -102 -29.5t-42 -92.5q0 -36 22.5 -56.5
t58.5 -28t79 -11.5t86.5 -13.5t79.5 -27t58.5 -58.5t22.5 -103z" />
    <glyph glyph-name="scedilla" unicode="&#x15f;" horiz-adv-x="465" 
d="M443 160q0 -45 -17 -77.5t-45.5 -49.5t-55.5 -25.5t-57 -11.5l-27 -57q48 0 83 -22.5t35 -69.5q0 -62 -48 -90t-106.5 -15t-87.5 57l45 48q29 -37 73 -38.5t45 38.5q0 17 -9.5 28t-28.5 15t-32 5t-34 1v38l32 61q-28 2 -54 8t-56.5 20.5t-51 43t-25.5 68.5l95 20
q6 -39 38.5 -60t76.5 -21q48 0 81 22t33 64q0 26 -23.5 39t-58.5 14.5t-75.5 7t-75.5 15t-58.5 40t-23.5 79.5q0 50 22.5 83.5t59.5 47t63.5 17.5t55.5 4q177 0 200 -118l-90 -26q-16 70 -110 70q-103 0 -103 -78q0 -27 23.5 -40t58.5 -14.5t75.5 -6.5t75.5 -14t58.5 -39.5
t23.5 -80.5z" />
    <glyph glyph-name="Scaron" unicode="&#x160;" horiz-adv-x="566" 
d="M115 890h94l74 -93l73 93h94l-127 -119h-81zM137 510q0 -36 22.5 -56.5t58.5 -28t79 -11.5t86.5 -13.5t79.5 -27t58.5 -58.5t22.5 -103q0 -38 -12 -73t-39 -69t-81 -54.5t-128 -20.5q-71 0 -122.5 16.5t-80 46t-42 60.5t-17.5 67l96 16q6 -63 54 -92.5t112 -29.5
q67 0 113.5 31t46.5 102q0 40 -22.5 64t-58.5 33t-79.5 14t-86.5 13.5t-79 24.5t-58.5 53.5t-22.5 95.5q0 92 67.5 147t176.5 53q93 -2 156.5 -47t75.5 -122l-93 -17q-6 54 -45.5 81t-93.5 27q-60 0 -102 -29.5t-42 -92.5z" />
    <glyph glyph-name="scaron" unicode="&#x161;" horiz-adv-x="465" 
d="M65 690h94l74 -93l73 93h94l-127 -119h-81zM128 355q0 -27 23.5 -40t58.5 -14.5t75.5 -6.5t75.5 -14t58.5 -39.5t23.5 -80.5q0 -43 -17.5 -75.5t-41 -49t-55.5 -26.5t-54 -12.5t-44 -2.5q-26 0 -53 4.5t-63.5 17t-62 43.5t-31.5 76l95 20q6 -39 38.5 -60t76.5 -21
q48 0 81 22t33 64q0 26 -23.5 39t-58.5 14.5t-75.5 7t-75.5 15t-58.5 40t-23.5 79.5q0 50 22.5 83.5t59.5 47t63.5 17.5t55.5 4q177 0 200 -118l-90 -26q-16 70 -110 70q-103 0 -103 -78z" />
    <glyph glyph-name="uni0162" unicode="&#x162;" horiz-adv-x="590" 
d="M301 0l-19 -40q48 0 83 -22.5t35 -69.5q0 -62 -48 -90t-106.5 -15t-87.5 57l45 48q29 -37 73 -38.5t45 38.5q0 17 -9.5 28t-28.5 15t-32 5t-34 1v38l29 55v601h-226v89h550v-89h-225v-611h-44z" />
    <glyph glyph-name="uni0163" unicode="&#x163;" horiz-adv-x="295" 
d="M163 -48q48 0 83 -22.5t35 -69.5q0 -62 -48 -90t-106.5 -15t-87.5 57l45 48q29 -37 73 -38.5t45 38.5q0 17 -9.5 28t-28.5 15t-32 5t-34 1v38l35 67q-25 13 -33 38.5t-8 75.5v299h-82v79h82v94l99 40v-134h82v-79h-82v-299q0 -37 40 -37h42v-91h-42q-19 0 -45 2z" />
    <glyph glyph-name="Tcaron" unicode="&#x164;" horiz-adv-x="590" 
d="M129 890h94l74 -93l73 93h94l-127 -119h-81zM570 611h-225v-611h-99v611h-226v89h550v-89z" />
    <glyph glyph-name="tcaron" unicode="&#x165;" horiz-adv-x="295" 
d="M-27 790h94l74 -93l73 93h94l-127 -119h-81zM191 506h82v-79h-82v-299q0 -37 40 -37h42v-91h-42q-47 0 -74 5.5t-42 22t-19 38.5t-4 62v299h-82v79h82v94l99 40v-134z" />
    <glyph glyph-name="Tbar" unicode="&#x166;" horiz-adv-x="590" 
d="M345 611v-212h115v-74h-115v-325h-99v325h-116v74h116v212h-226v89h550v-89h-225z" />
    <glyph glyph-name="tbar" unicode="&#x167;" horiz-adv-x="295" 
d="M191 427v-81h82v-79h-82v-139q0 -37 40 -37h42v-91h-42q-47 0 -74 5.5t-42 22t-19 38.5t-4 62v139h-82v79h82v81h-82v79h82v94l99 40v-134h82v-79h-82z" />
    <glyph glyph-name="Umacron" unicode="&#x16a;" horiz-adv-x="624" 
d="M451 840v-71h-275v71h275zM492 700v-408q0 -109 -49.5 -162.5t-130.5 -53.5t-130.5 53.5t-49.5 162.5v408h-102v-407q0 -146 79.5 -223.5t202.5 -77.5t202.5 77.5t79.5 223.5v407h-102z" />
    <glyph glyph-name="umacron" unicode="&#x16b;" horiz-adv-x="481" 
d="M379 569h-275v71h275v-71zM451 500v-500h-100v111q-53 -119 -179 -119q-34 0 -59 9.5t-40 29t-24.5 38.5t-13 49.5t-4.5 49.5t-1 50v282h100v-282q0 -143 79 -143q12 0 22.5 2t28.5 8.5t32.5 22.5t28.5 40.5t22 67t8 97.5v187h100z" />
    <glyph glyph-name="Uring" unicode="&#x16e;" horiz-adv-x="624" 
d="M312 744q-38 0 -64.5 26.5t-26.5 64.5t26.5 64t64.5 26t64 -26.5t26 -63.5q0 -38 -26 -64.5t-64 -26.5zM312 797q15 0 26 11t11 27q0 15 -11 26t-26 11q-16 0 -27 -11t-11 -26q0 -16 11 -27t27 -11zM492 700v-408q0 -109 -49.5 -162.5t-130.5 -53.5t-130.5 53.5
t-49.5 162.5v408h-102v-407q0 -146 79.5 -223.5t202.5 -77.5t202.5 77.5t79.5 223.5v407h-102z" />
    <glyph glyph-name="uring" unicode="&#x16f;" horiz-adv-x="481" 
d="M240 544q-38 0 -64.5 26.5t-26.5 64.5t26.5 64t64.5 26t64 -26.5t26 -63.5q0 -38 -26 -64.5t-64 -26.5zM240 672q-16 0 -27 -11t-11 -26q0 -16 11 -27t27 -11q15 0 26 11t11 27q0 15 -11 26t-26 11zM451 500v-500h-100v111q-53 -119 -179 -119q-34 0 -59 9.5t-40 29
t-24.5 38.5t-13 49.5t-4.5 49.5t-1 50v282h100v-282q0 -143 79 -143q12 0 22.5 2t28.5 8.5t32.5 22.5t28.5 40.5t22 67t8 97.5v187h100z" />
    <glyph glyph-name="Uhungarumlaut" unicode="&#x170;" horiz-adv-x="624" 
d="M277 900h92l-97 -142h-53zM407 900h92l-97 -142h-53zM492 700v-408q0 -109 -49.5 -162.5t-130.5 -53.5t-130.5 53.5t-49.5 162.5v408h-102v-407q0 -146 79.5 -223.5t202.5 -77.5t202.5 77.5t79.5 223.5v407h-102z" />
    <glyph glyph-name="uhungarumlaut" unicode="&#x171;" horiz-adv-x="481" 
d="M200 558h-53l58 142h92zM277 558l58 142h92l-97 -142h-53zM451 500v-500h-100v111q-53 -119 -179 -119q-34 0 -59 9.5t-40 29t-24.5 38.5t-13 49.5t-4.5 49.5t-1 50v282h100v-282q0 -143 79 -143q12 0 22.5 2t28.5 8.5t32.5 22.5t28.5 40.5t22 67t8 97.5v187h100z" />
    <glyph glyph-name="Uogonek" unicode="&#x172;" horiz-adv-x="624" 
d="M594 700v-407q0 -136 -69 -212.5t-179 -86.5q-12 -20 -22.5 -48t-15 -58t15 -44.5t64.5 -0.5l41 -69q-35 -28 -100 -20t-89.5 60.5t53.5 177.5q-116 6 -189.5 83t-73.5 218v407h102v-408q0 -109 49.5 -162.5t130.5 -53.5t130.5 53.5t49.5 162.5v408h102z" />
    <glyph glyph-name="uogonek" unicode="&#x173;" horiz-adv-x="481" 
d="M451 500v-500h-100v111q-39 -90 -122 -112q-8 -15 -13.5 -31.5t-10 -35t-2.5 -32.5t9.5 -25t25 -12t44.5 6l41 -69q-12 -10 -33.5 -16t-45.5 -5.5t-48 7t-41 23t-24.5 39.5t2 60.5t37.5 83.5q-40 0 -67.5 16t-41.5 36t-21.5 55.5t-8.5 58.5t-1 60v282h100v-282
q0 -143 79 -143q12 0 22.5 2t28.5 8.5t32.5 22.5t28.5 40.5t22 67t8 97.5v187h100z" />
    <glyph glyph-name="Wcircumflex" unicode="&#x174;" horiz-adv-x="957" 
d="M402 781h-94l127 119h81l127 -119h-94l-73 93zM935 700l-219 -700h-99l-138 513l-139 -513h-99l-219 700h109l157 -525l140 525h101l140 -525l157 525h109z" />
    <glyph glyph-name="wcircumflex" unicode="&#x175;" horiz-adv-x="714" 
d="M284 581h-94l127 119h81l127 -119h-94l-73 93zM694 500l-157 -500h-84l-96 327l-96 -327h-84l-157 500h102l95 -343l89 343h102l89 -343l95 343h102z" />
    <glyph glyph-name="Ycircumflex" unicode="&#x176;" horiz-adv-x="616" 
d="M235 781h-94l127 119h81l127 -119h-94l-73 93zM601 699l-242 -354v-345h-100v345l-244 354h117l177 -264l175 264h117z" />
    <glyph glyph-name="ycircumflex" unicode="&#x177;" horiz-adv-x="497" 
d="M174 581h-94l127 119h81l127 -119h-94l-73 93zM482 500l-214 -571q-31 -92 -64 -118t-102 -26h-27v87h27q35 0 48 10.5t27 46.5l25 72l-187 499h109l124 -366l125 366h109z" />
    <glyph glyph-name="Ydieresis" unicode="&#x178;" horiz-adv-x="616" 
d="M289 791h-101v109h101v-109zM428 791h-101v109h101v-109zM601 699l-242 -354v-345h-100v345l-244 354h117l177 -264l175 264h117z" />
    <glyph glyph-name="Zacute" unicode="&#x179;" horiz-adv-x="612" 
d="M340 758h-73l58 142h92zM590 89v-89h-568v89l433 522h-425v89h551v-89l-433 -522h442z" />
    <glyph glyph-name="zacute" unicode="&#x17a;" horiz-adv-x="455" 
d="M263 558h-73l58 142h92zM430 79v-79h-405v79l286 342h-278v79h394v-79l-286 -342h289z" />
    <glyph glyph-name="Zdotaccent" unicode="&#x17b;" horiz-adv-x="612" 
d="M355 791h-101v109h101v-109zM590 89v-89h-568v89l433 522h-425v89h551v-89l-433 -522h442z" />
    <glyph glyph-name="zdotaccent" unicode="&#x17c;" horiz-adv-x="455" 
d="M278 591h-101v109h101v-109zM430 79v-79h-405v79l286 342h-278v79h394v-79l-286 -342h289z" />
    <glyph glyph-name="Zcaron" unicode="&#x17d;" horiz-adv-x="612" 
d="M139 890h94l74 -93l73 93h94l-127 -119h-81zM590 89v-89h-568v89l433 522h-425v89h551v-89l-433 -522h442z" />
    <glyph glyph-name="zcaron" unicode="&#x17e;" horiz-adv-x="455" 
d="M62 690h94l74 -93l73 93h94l-127 -119h-81zM430 79v-79h-405v79l286 342h-278v79h394v-79l-286 -342h289z" />
    <glyph glyph-name="circumflex" unicode="&#x2c6;" horiz-adv-x="395" 
d="M271 581l-73 93l-74 -93h-94l127 119h81l127 -119h-94z" />
    <glyph glyph-name="caron" unicode="&#x2c7;" horiz-adv-x="359" 
d="M345 690l-127 -119h-81l-127 119h94l74 -93l73 93h94z" />
    <glyph glyph-name="breve" unicode="&#x2d8;" horiz-adv-x="346" 
d="M92 699q0 -40 21.5 -64.5t59.5 -24.5t59.5 24.5t21.5 64.5h72q0 -67 -43.5 -111.5t-109.5 -44.5t-109.5 44.5t-43.5 111.5h72z" />
    <glyph glyph-name="dotaccent" unicode="&#x2d9;" horiz-adv-x="121" 
d="M10 700h101v-109h-101v109z" />
    <glyph glyph-name="ring" unicode="&#x2da;" horiz-adv-x="221" 
d="M111 544q-38 0 -64.5 26.5t-26.5 64.5t26.5 64t64.5 26q37 0 63.5 -26.5t26.5 -63.5q0 -38 -26 -64.5t-64 -26.5zM111 597q15 0 26 11t11 27q0 15 -11 26t-26 11q-16 0 -27 -11t-11 -26q0 -16 11 -27t27 -11z" />
    <glyph glyph-name="ogonek" unicode="&#x2db;" horiz-adv-x="235" 
d="M87 4q-109 -152 -43 -219q38 -39 110 -32q40 4 61 21l-41 69q-82 -25 -79 42q2 50 36 107q6 9 9 12h-53z" />
    <glyph glyph-name="tilde" unicode="&#x2dc;" horiz-adv-x="397" 
d="M10 622q23 46 51.5 65t77.5 16q37 -2 71 -29t51 -28q25 -1 39 11t24 40l63 -23q-11 -35 -44.5 -65.5t-84.5 -27.5q-34 2 -66.5 29t-55.5 28q-29 1 -45.5 -14t-29.5 -43z" />
    <glyph glyph-name="hungarumlaut" unicode="&#x2dd;" horiz-adv-x="320" 
d="M78 700h92l-97 -142h-53zM208 700h92l-97 -142h-53z" />
    <glyph glyph-name="gravecomb" unicode="&#x300;" 
d="M-103 558l-77 142h92l58 -142h-73z" />
    <glyph glyph-name="acutecomb" unicode="&#x301;" 
d="M-70 700h92l-77 -142h-73z" />
    <glyph glyph-name="uni0302" unicode="&#x302;" 
d="M-124 581l-73 93l-74 -93h-94l127 119h81l127 -119h-94z" />
    <glyph glyph-name="tildecomb" unicode="&#x303;" 
d="M-387 622q23 46 51.5 65t77.5 16q37 -2 71 -29t51 -28q25 -1 39 11t24 40l63 -23q-11 -35 -44.5 -65.5t-84.5 -27.5q-34 2 -66.5 29t-55.5 28q-29 1 -45.5 -14t-29.5 -43z" />
    <glyph glyph-name="uni0304" unicode="&#x304;" 
d="M-20 640v-71h-275v71h275z" />
    <glyph glyph-name="uni0306" unicode="&#x306;" 
d="M-254 699q0 -40 21.5 -64.5t59.5 -24.5t59.5 24.5t21.5 64.5h72q0 -67 -43.5 -111.5t-109.5 -44.5t-109.5 44.5t-43.5 111.5h72z" />
    <glyph glyph-name="uni0307" unicode="&#x307;" 
d="M-111 700h101v-109h-101v109z" />
    <glyph glyph-name="uni0308" unicode="&#x308;" 
d="M-250 700h101v-109h-101v109zM-111 700h101v-109h-101v109z" />
    <glyph glyph-name="uni030A" unicode="&#x30a;" 
d="M-110 544q-38 0 -64.5 26.5t-26.5 64.5t26.5 64t64.5 26t64 -26.5t26 -63.5q0 -38 -26 -64.5t-64 -26.5zM-110 597q15 0 26 11t11 27q0 15 -11 26t-26 11q-16 0 -27 -11t-11 -26q0 -16 11 -27t27 -11z" />
    <glyph glyph-name="uni030B" unicode="&#x30b;" 
d="M-242 700h92l-97 -142h-53zM-112 700h92l-97 -142h-53z" />
    <glyph glyph-name="uni030C" unicode="&#x30c;" 
d="M-30 700l-127 -119h-81l-127 119h94l74 -93l73 93h94z" />
    <glyph glyph-name="uni0326" unicode="&#x326;" 
d="M-132 -50h112l-77 -142h-93z" />
    <glyph glyph-name="uni0327" unicode="&#x327;" 
d="M-203 -76v-38q21 0 34 -1t32 -5t28.5 -15t9.5 -28q-1 -40 -45 -38.5t-73 38.5l-45 -48q29 -44 87.5 -57t106.5 15t48 90q0 47 -35 69.5t-83 22.5l35 75h-58z" />
    <glyph glyph-name="uni0328" unicode="&#x328;" 
d="M-148 4q-109 -152 -43 -219q38 -39 110 -32q40 4 61 21l-41 69q-82 -25 -79 42q2 50 36 107q6 9 9 12h-53z" />
    <glyph glyph-name="Wgrave" unicode="&#x1e80;" horiz-adv-x="957" 
d="M441 758l-77 142h92l58 -142h-73zM935 700l-219 -700h-99l-138 513l-139 -513h-99l-219 700h109l157 -525l140 525h101l140 -525l157 525h109z" />
    <glyph glyph-name="wgrave" unicode="&#x1e81;" horiz-adv-x="714" 
d="M323 558l-77 142h92l58 -142h-73zM694 500l-157 -500h-84l-96 327l-96 -327h-84l-157 500h102l95 -343l89 343h102l89 -343l95 343h102z" />
    <glyph glyph-name="Wacute" unicode="&#x1e82;" horiz-adv-x="957" 
d="M517 755h-73l58 142h92zM935 700l-219 -700h-99l-138 513l-139 -513h-99l-219 700h109l157 -525l140 525h101l140 -525l157 525h109z" />
    <glyph glyph-name="wacute" unicode="&#x1e83;" horiz-adv-x="714" 
d="M399 555h-73l58 142h92zM694 500l-157 -500h-84l-96 327l-96 -327h-84l-157 500h102l95 -343l89 343h102l89 -343l95 343h102z" />
    <glyph glyph-name="Wdieresis" unicode="&#x1e84;" horiz-adv-x="957" 
d="M456 791h-101v109h101v-109zM595 791h-101v109h101v-109zM935 700l-219 -700h-99l-138 513l-139 -513h-99l-219 700h109l157 -525l140 525h101l140 -525l157 525h109z" />
    <glyph glyph-name="wdieresis" unicode="&#x1e85;" horiz-adv-x="714" 
d="M338 591h-101v109h101v-109zM477 591h-101v109h101v-109zM694 500l-157 -500h-84l-96 327l-96 -327h-84l-157 500h102l95 -343l89 343h102l89 -343l95 343h102z" />
    <glyph glyph-name="Ygrave" unicode="&#x1ef2;" horiz-adv-x="616" 
d="M274 758l-77 142h92l58 -142h-73zM601 699l-242 -354v-345h-100v345l-244 354h117l177 -264l175 264h117z" />
    <glyph glyph-name="ygrave" unicode="&#x1ef3;" horiz-adv-x="497" 
d="M213 558l-77 142h92l58 -142h-73zM482 500l-214 -571q-31 -92 -64 -118t-102 -26h-27v87h27q35 0 48 10.5t27 46.5l25 72l-187 499h109l124 -366l125 366h109z" />
    <glyph glyph-name="endash" unicode="&#x2013;" horiz-adv-x="523" 
d="M493 329v-89h-463v89h463z" />
    <glyph glyph-name="emdash" unicode="&#x2014;" horiz-adv-x="807" 
d="M777 329v-89h-747v89h747z" />
    <glyph glyph-name="quoteleft" unicode="&#x2018;" horiz-adv-x="147" 
d="M77 507l50 193h-97l-10 -47v-146h57z" />
    <glyph glyph-name="quoteright" unicode="&#x2019;" horiz-adv-x="147" 
d="M127 653l-10 47h-97l50 -193h57v146z" />
    <glyph glyph-name="quotesinglbase" unicode="&#x201a;" horiz-adv-x="600" 
d="M121 101v-109q0 -72 -22.5 -95t-68.5 -23h-10v51h10q7 0 12.5 1t9.5 4.5t6.5 6t4.5 8t3 8.5t1.5 10.5t0.5 9.5v10v9h-48v109h101z" />
    <glyph glyph-name="quotedblleft" unicode="&#x201c;" horiz-adv-x="274" 
d="M77 507l50 193h-97l-10 -47v-146h57zM204 507l50 193h-97l-10 -47v-146h57z" />
    <glyph glyph-name="quotedblright" unicode="&#x201d;" horiz-adv-x="274" 
d="M127 653l-10 47h-97l50 -193h57v146zM254 653l-10 47h-97l50 -193h57v146z" />
    <glyph glyph-name="quotedblbase" unicode="&#x201e;" horiz-adv-x="600" 
d="M121 101v-109q0 -72 -22.5 -95t-68.5 -23h-10v51h10q7 0 12.5 1t9.5 4.5t6.5 6t4.5 8t3 8.5t1.5 10.5t0.5 9.5v10v9h-48v109h101z" />
    <glyph glyph-name="dagger" unicode="&#x2020;" horiz-adv-x="273" 
d="M258 548h-72v-204h-99v204h-72v68h72v84h99v-84h72v-68z" />
    <glyph glyph-name="daggerdbl" unicode="&#x2021;" horiz-adv-x="273" 
d="M186 548v-49h72v-68h-72v-87h-99v87h-72v68h72v49h-72v68h72v84h99v-84h72v-68h-72z" />
    <glyph glyph-name="bullet" unicode="&#x2022;" horiz-adv-x="322" 
d="M161 153q-59 0 -100 41.5t-41 99.5t41 99.5t100 41.5t100 -41.5t41 -99.5t-41 -99.5t-100 -41.5z" />
    <glyph glyph-name="ellipsis" unicode="&#x2026;" horiz-adv-x="595" 
d="M20 101h101v-109h-101v109zM212 101h101v-109h-101v109zM505 101v-109h-101v109h101z" />
    <glyph glyph-name="perthousand" unicode="&#x2030;" horiz-adv-x="1025" 
d="M160 410q40 0 71.5 16t47.5 41.5t23.5 56.5t0 62t-23.5 56.5t-47.5 41.5t-71.5 16t-71.5 -16t-47.5 -41.5t-23.5 -56.5t0 -62t23.5 -56.5t47.5 -41.5t71.5 -16zM158 0l463 700h-99l-463 -700h99zM160 479q-40 0 -56 38t0 76t56 38t56 -38t0 -76t-56 -38zM528 0
q46 0 80 21.5t49.5 53.5t15.5 70t-15.5 70t-49.5 53.5t-80 21.5t-80 -21.5t-49.5 -53.5t-15.5 -70t15.5 -70t49.5 -53.5t80 -21.5zM864 -2q46 0 80 21.5t49.5 53.5t15.5 70t-15.5 70t-49.5 53.5t-80 21.5t-80 -21.5t-49.5 -53.5t-15.5 -70t15.5 -70t49.5 -53.5t80 -21.5z
M528 69q-40 0 -56 38t0 76t56 38t56 -38t0 -76t-56 -38zM864 67q-40 0 -56 38t0 76t56 38t56 -38t0 -76t-56 -38z" />
    <glyph glyph-name="guilsinglleft" unicode="&#x2039;" horiz-adv-x="250" 
d="M235 376l-152 -99l152 -100v-89l-220 144v89l220 144v-89z" />
    <glyph glyph-name="guilsinglright" unicode="&#x203a;" horiz-adv-x="250" 
d="M235 319v-89l-220 -144v89l152 100l-152 99v89z" />
    <glyph glyph-name="fraction" unicode="&#x2044;" horiz-adv-x="592" 
d="M114 0l463 700h-99l-463 -700h99z" />
    <glyph glyph-name="Euro" unicode="&#x20ac;" horiz-adv-x="658" 
d="M346 77q149 2 209 134l81 -47q-40 -84 -116 -127t-174 -44q-145 -1 -234.5 90.5t-89.5 266.5q0 176 90 267.5t234 89.5q99 -2 175 -45t115 -126l-81 -47q-60 132 -209 134q-80 1 -134 -40.5t-74 -127.5h224l-10 -78h-224q-1 -9 -1 -27t1 -26h234l-10 -78h-214
q39 -171 208 -169z" />
    <glyph glyph-name="trademark" unicode="&#x2122;" horiz-adv-x="254" 
d="M108 644h-26v-64h-26v64h-26v26h78v-26zM224 580h-26v36l-17 -36h-24l-17 37v-37h-25v90h27l27 -63l28 63h27v-90z" />
    <glyph glyph-name="arrowleft" unicode="&#x2190;" horiz-adv-x="740" 
d="M720 284h-511l179 -179l-70 -70l-298 298l298 298l70 -70l-179 -179l511 -1v-97z" />
    <glyph glyph-name="arrowup" unicode="&#x2191;" horiz-adv-x="636" 
d="M546 332l-179 179v-511h-98v511l-179 -179l-70 70l298 298l298 -298z" />
    <glyph glyph-name="arrowright" unicode="&#x2192;" horiz-adv-x="740" 
d="M720 333l-298 -298l-70 69l180 180l-512 -1v98l510 1l-178 179l70 70z" />
    <glyph glyph-name="arrowdown" unicode="&#x2193;" horiz-adv-x="636" 
d="M616 298l-298 -298l-298 298l70 70l179 -179v511h98v-511l179 179z" />
    <glyph glyph-name="arrowboth" unicode="&#x2194;" horiz-adv-x="920" 
d="M900 333l-298 -298l-70 70l179 179h-502l179 -179l-70 -70l-298 298l298 298l70 -70l-179 -179l503 -1l-180 180l70 70z" />
    <glyph glyph-name="arrowupdn" unicode="&#x2195;" horiz-adv-x="350" 
d="M205 537v-375l125 70v-58l-155 -169l-155 169v58l126 -71v377l-126 -71v58l155 169l155 -169v-58z" />
    <glyph glyph-name="uni2196" unicode="&#x2196;" horiz-adv-x="569" 
d="M480 0l-361 361v-253h-99v421h421v-99h-253l361 -361z" />
    <glyph glyph-name="uni2197" unicode="&#x2197;" horiz-adv-x="569" 
d="M549 529v-421h-99v253l-361 -361l-69 69l361 361h-253v99h421z" />
    <glyph glyph-name="uni2198" unicode="&#x2198;" horiz-adv-x="569" 
d="M549 421v-421h-421v99h253l-361 361l69 70l361 -361v252h99z" />
    <glyph glyph-name="uni2199" unicode="&#x2199;" horiz-adv-x="569" 
d="M188 99h253v-99h-421v421h99v-252l361 361l69 -70z" />
    <glyph glyph-name="partialdiff" unicode="&#x2202;" horiz-adv-x="528" 
d="M312 704q82 -15 133 -78t62.5 -153.5t-5.5 -200.5q-28 -156 -104.5 -223t-184.5 -48q-99 17 -156 84t-37 179q15 88 72.5 136.5t122.5 50.5t125 -35.5t80 -106.5q19 147 -18.5 227t-102.5 92zM393 199q13 70 -22.5 115t-92.5 54q-58 10 -105.5 -19.5t-60.5 -100.5
t21.5 -115t93.5 -54q59 -11 106.5 19t59.5 101z" />
    <glyph glyph-name="emptyset" unicode="&#x2205;" horiz-adv-x="594" 
d="M297 608q114 0 194.5 -80.5t80.5 -193.5q0 -114 -80.5 -194.5t-194.5 -80.5t-194.5 80.5t-80.5 194.5q0 113 80.5 193.5t194.5 80.5zM92 334q0 -67 38 -119l286 286q-55 37 -119 37q-85 0 -145 -59.5t-60 -144.5zM297 129q85 0 145 59.5t60 145.5q0 63 -37 118l-286 -286
q53 -37 118 -37z" />
    <glyph glyph-name="product" unicode="&#x220f;" horiz-adv-x="635" 
d="M620 614h-152v-614h-99v614h-113v-614h-99v614h-142v86h605v-86z" />
    <glyph glyph-name="summation" unicode="&#x2211;" horiz-adv-x="538" 
d="M523 638h-355l139 -280h-1l-138 -280h355v-78h-493l177 358h1l-178 358h493v-78z" />
    <glyph glyph-name="minus" unicode="&#x2212;" horiz-adv-x="523" 
d="M493 329v-89h-463v89h463z" />
    <glyph glyph-name="radical" unicode="&#x221a;" horiz-adv-x="645" 
d="M542 408l-28 63l-264 -591h-89l-145 322h89l100 -223l263 592h90l73 -163h-89z" />
    <glyph glyph-name="infinity" unicode="&#x221e;" horiz-adv-x="740" 
d="M558 458q75 0 117.5 -44t42.5 -103q0 -61 -41 -102q-47 -45 -119 -45q-56 0 -98.5 24.5t-89.5 69.5q-46 -45 -89 -69.5t-99 -24.5q-75 0 -117.5 44t-42.5 103t41 102q47 45 119 45q54 0 96.5 -25.5t91.5 -72.5q33 31 55.5 49t59 33.5t73.5 15.5zM182 237q64 0 136 72
q-40 38 -70.5 57t-65.5 19q-44 0 -67 -23q-20 -22 -20 -51q0 -30 22.5 -52t64.5 -22zM625 261q21 19 21 50q0 37 -26 55.5t-62 18.5q-35 0 -66 -19t-70 -57q37 -36 67.5 -54t68.5 -18q44 0 67 24z" />
    <glyph glyph-name="integral" unicode="&#x222b;" horiz-adv-x="356" 
d="M341 822v-88h-22q-28 0 -37 -15t-14 -57l-80 -662q-8 -83 -38.5 -121.5t-112.5 -38.5h-22v88h22q28 0 36.5 14.5t14.5 57.5l80 662q9 83 39 121.5t112 38.5h22z" />
    <glyph glyph-name="approxequal" unicode="&#x2248;" horiz-adv-x="453" 
d="M320 320q58 6 88 44t24 96l-83 -10q3 -23 -4.5 -34t-33.5 -13q-21 -3 -77.5 33.5t-100.5 32.5q-59 -7 -88.5 -46t-23.5 -94l83 9q-1 21 9.5 33.5t29.5 14.5q20 2 59 -26q2 -1 5 -4q59 -35 98 -37zM320 154q58 6 88 44t24 96l-83 -10q3 -23 -4.5 -34t-33.5 -13
q-20 -3 -48 15t-62 36t-68 15q-59 -7 -88.5 -46t-23.5 -94l83 9q-1 21 9.5 33.5t29.5 14.5q20 2 59 -26q2 -1 5 -4q59 -35 98 -37z" />
    <glyph glyph-name="notequal" unicode="&#x2260;" horiz-adv-x="523" 
d="M337 360l-45 -113h201v-89h-237l-32 -80h-105l32 80h-121v89h157l45 113h-202v89h238l32 80h105l-32 -80h120v-89h-156z" />
    <glyph glyph-name="lessequal" unicode="&#x2264;" horiz-adv-x="352" 
d="M337 406l-222 -99l222 -100v-89l-322 144v89l322 144v-89zM15 77h322v-77h-322v77z" />
    <glyph glyph-name="greaterequal" unicode="&#x2265;" horiz-adv-x="352" 
d="M337 351v-89l-322 -144v89l222 100l-222 99v89zM15 77h322v-77h-322v77z" />
    <glyph glyph-name="lozenge" unicode="&#x25ca;" horiz-adv-x="417" 
d="M397 327l-144 -220h-89l-144 220l144 220h89zM308 327l-99 152l-100 -152l100 -152z" />
    </font>
</defs>
</svg>
